<?xml version="1.0" encoding="UTF-8"?>
<svg width="500px" height="500px" viewBox="0 0 500 500" version="1.1" xmlns="http://www.w3.org/2000/svg" xmlns:xlink="http://www.w3.org/1999/xlink">
    <!-- Generator: Sketch 43.1 (39012) - http://www.bohemiancoding.com/sketch -->
    <title>Group 8</title>
    <desc>Created with Sketch.</desc>
    <defs></defs>
    <g id="Page-2" stroke="none" stroke-width="1" fill="none" fill-rule="evenodd">
        <g id="Group-8">
            <g id="Group-7">
                <circle id="Oval-2" fill="#EEEEEE" cx="250" cy="250" r="250"></circle>
                <g id="Group" transform="translate(112.000000, 152.678472)" fill-rule="nonzero">
                    <path d="M131.16205,-2.84217094e-14 L3.89391417,127.988588 C-0.440729895,132.312112 -0.440729895,139.325246 3.89391417,143.653151 L93.7751963,233.30386 C98.1098404,237.627385 105.141011,237.627385 109.480047,233.30386 L233.401679,106.357824 L233.401679,-2.84217094e-14 L131.16205,-2.84217094e-14 Z M189.484313,61.3265874 C179.782967,61.3265874 171.917366,53.4811647 171.917366,43.8047053 C171.917366,34.1282459 179.782967,26.2828232 189.484313,26.2828232 C199.185659,26.2828232 207.05126,34.1282459 207.05126,43.8047053 C207.05126,53.4811647 199.185659,61.3265874 189.484313,61.3265874 Z" id="Shape" fill="#EDDCAF"></path>
                    <path d="M189.484313,8.76094106 C170.081621,8.76094106 154.35042,24.4517865 154.35042,43.8047053 C154.35042,63.1576241 170.081621,78.8484695 189.484313,78.8484695 C208.887006,78.8484695 224.618206,63.1576241 224.618206,43.8047053 C224.618206,24.4517865 208.887006,8.76094106 189.484313,8.76094106 Z M189.484313,61.3265874 C179.782967,61.3265874 171.917366,53.4811647 171.917366,43.8047053 C171.917366,34.1282459 179.782967,26.2828232 189.484313,26.2828232 C199.185659,26.2828232 207.05126,34.1282459 207.05126,43.8047053 C207.05126,53.4811647 199.185659,61.3265874 189.484313,61.3265874 Z" id="Shape" fill="#D8C69A"></path>
                </g>
                <path d="M301.484313,200.863648 C300.360028,200.863648 299.235744,200.434362 298.379355,199.58017 C296.662186,197.867406 296.662186,195.098949 298.379355,193.386185 L359.863668,132.059597 C361.580837,130.346833 364.356415,130.346833 366.073584,132.059597 C367.790753,133.772361 367.790753,136.540819 366.073584,138.253583 L304.589271,199.58017 C303.732882,200.434362 302.608598,200.863648 301.484313,200.863648 Z" id="Shape" fill="#D75A4A" fill-rule="nonzero"></path>
                <path d="M212.108081,357.649449 C210.983796,357.649449 209.859511,357.220163 209.003123,356.365971 C207.285954,354.653207 207.285954,351.88475 209.003123,350.171986 L255.590665,303.712715 C257.307834,301.999951 260.083412,301.999951 261.800581,303.712715 C263.51775,305.425479 263.51775,308.193937 261.800581,309.906701 L215.213038,356.365971 C214.35665,357.220163 213.232365,357.649449 212.108081,357.649449 Z" id="Shape" fill="#D8C69A" fill-rule="nonzero"></path>
                <path d="M274.211628,295.696454 C273.069777,295.696454 271.923534,295.218983 271.093495,294.426118 C270.298591,293.598209 269.819892,292.459287 269.819892,291.315984 C269.819892,290.177061 270.298591,289.038139 271.093495,288.20585 C272.718438,286.585076 275.748736,286.585076 277.329761,288.20585 C278.120274,288.998715 278.603365,290.133257 278.603365,291.315984 C278.603365,292.503091 278.120274,293.598209 277.329761,294.426118 C276.534857,295.218983 275.397397,295.696454 274.211628,295.696454 Z" id="Shape" fill="#D8C69A" fill-rule="nonzero"></path>
                <path d="M184.16346,298.797827 C183.039176,298.797827 181.914891,298.368541 181.058502,297.51435 C179.341333,295.801586 179.341333,293.033128 181.058502,291.320364 L227.637261,244.856713 C229.35443,243.143949 232.130008,243.143949 233.847177,244.856713 C235.564346,246.569477 235.564346,249.337935 233.847177,251.050699 L187.268418,297.51435 C186.412029,298.372922 185.287745,298.797827 184.16346,298.797827 Z" id="Shape" fill="#D8C69A" fill-rule="nonzero"></path>
                <path d="M221.427346,304.991813 C220.303061,304.991813 219.178777,304.562527 218.322388,303.708335 C216.605219,301.995571 216.605219,299.227114 218.322388,297.51435 L249.376358,266.540042 C251.093527,264.827279 253.869104,264.827279 255.586273,266.540042 C257.303442,268.252806 257.303442,271.021264 255.586273,272.734028 L224.532304,303.708335 C223.675915,304.566907 222.55163,304.991813 221.427346,304.991813 Z" id="Shape" fill="#D8C69A" fill-rule="nonzero"></path>
                <path d="M190.373376,335.9705 C189.249091,335.9705 188.124807,335.541214 187.268418,334.687023 C185.551249,332.978639 185.551249,330.205801 187.268418,328.493037 L193.478334,322.294671 C195.195503,320.581907 197.97108,320.581907 199.688249,322.294671 C201.405418,324.003055 201.405418,326.775893 199.688249,328.488657 L193.478334,334.687023 C192.621945,335.541214 191.497661,335.9705 190.373376,335.9705 Z" id="Shape" fill="#D8C69A" fill-rule="nonzero"></path>
                <path d="M146.899575,292.599462 C145.77529,292.599462 144.651006,292.170176 143.794617,291.315984 C142.077448,289.60322 142.077448,286.834762 143.794617,285.121998 L190.373376,238.662728 C192.090545,236.949964 194.866123,236.949964 196.583292,238.662728 C198.300461,240.375492 198.300461,243.143949 196.583292,244.856713 L150.004533,291.315984 C149.143752,292.174556 148.023859,292.599462 146.899575,292.599462 Z" id="Shape" fill="#D8C69A" fill-rule="nonzero"></path>
                <path d="M208.989948,230.650847 C207.848096,230.650847 206.706245,230.168996 205.871815,229.380511 C205.081302,228.548222 204.598211,227.409299 204.598211,226.270377 C204.598211,225.08765 205.081302,223.992532 205.920124,223.160243 C207.496757,221.539469 210.48753,221.539469 212.108081,223.160243 C212.902985,223.948728 213.381684,225.08765 213.381684,226.270377 C213.381684,227.409299 212.902985,228.548222 212.108081,229.380511 C211.278042,230.164615 210.180108,230.650847 208.989948,230.650847 Z" id="Shape" fill="#D8C69A" fill-rule="nonzero"></path>
                <path d="M171.752413,311.20332 C170.562252,311.20332 169.464318,310.725849 168.63428,309.889179 C167.79985,309.100694 167.360676,307.966152 167.360676,306.822849 C167.360676,305.640122 167.79985,304.505581 168.63428,303.712715 C170.259222,302.091941 173.201686,302.091941 174.826628,303.712715 C175.656666,304.545005 176.144149,305.640122 176.144149,306.822849 C176.144149,307.966152 175.661058,309.06127 174.870546,309.889179 C174.031724,310.725849 172.894264,311.20332 171.752413,311.20332 Z" id="Shape" fill="#D8C69A" fill-rule="nonzero"></path>
                <path d="M208.989948,317.384164 C207.848096,317.384164 206.706245,316.906693 205.871815,316.113827 C205.081302,315.285919 204.598211,314.142616 204.598211,313.003693 C204.598211,311.864771 205.081302,310.725849 205.871815,309.893559 C207.496757,308.272785 210.48753,308.272785 212.108081,309.893559 C212.942511,310.725849 213.381684,311.864771 213.381684,313.003693 C213.381684,314.142616 212.942511,315.285919 212.108081,316.113827 C211.278042,316.902312 210.180108,317.384164 208.989948,317.384164 Z" id="Shape" fill="#D8C69A" fill-rule="nonzero"></path>
            </g>
        </g>
    </g>
</svg>