<?xml version="1.0" encoding="UTF-8"?>
<svg width="348px" height="276px" viewBox="0 0 348 276" version="1.1" xmlns="http://www.w3.org/2000/svg" xmlns:xlink="http://www.w3.org/1999/xlink">
    <!-- Generator: Sketch 43.1 (39012) - http://www.bohemiancoding.com/sketch -->
    <title>Cartelera de Innovac</title>
    <desc>Created with Sketch.</desc>
    <defs></defs>
    <g id="Page-1" stroke="none" stroke-width="1" fill="none" fill-rule="evenodd">
        <path d="M167.176,34.384 C164.775988,34.384 162.664009,33.9120047 160.84,32.968 C159.015991,32.0239953 157.608005,30.7040085 156.616,29.008 C155.623995,27.3119915 155.128,25.3440112 155.128,23.104 L155.128,11.248 C155.128,9.0079888 155.623995,7.04000848 156.616,5.344 C157.608005,3.64799152 159.015991,2.33600464 160.84,1.408 C162.664009,0.47999536 164.775988,0.016 167.176,0.016 C169.544012,0.016 171.639991,0.46399552 173.464,1.36 C175.288009,2.25600448 176.695995,3.51999184 177.688,5.152 C178.680005,6.78400816 179.176,8.67198928 179.176,10.816 C179.176,11.1360016 178.936002,11.3279997 178.456,11.392 L174.376,11.632 L174.184,11.632 C173.799998,11.632 173.608,11.5520008 173.608,11.392 L173.608,11.104 C173.608,9.21599056 173.024006,7.69600576 171.856,6.544 C170.687994,5.39199424 169.12801,4.816 167.176,4.816 C165.22399,4.816 163.656006,5.39199424 162.472,6.544 C161.287994,7.69600576 160.696,9.21599056 160.696,11.104 L160.696,23.344 C160.696,25.2000093 161.287994,26.7039942 162.472,27.856 C163.656006,29.0080058 165.22399,29.584 167.176,29.584 C169.12801,29.584 170.687994,29.0160057 171.856,27.88 C173.024006,26.7439943 173.608,25.2320094 173.608,23.344 C173.608,23.1839992 173.679999,23.0480006 173.824,22.936 C173.968001,22.8239994 174.151999,22.7839998 174.376,22.816 L178.408,23.008 C178.920003,23.0720003 179.176,23.1519995 179.176,23.248 L179.176,23.488 C179.176,25.6640109 178.680005,27.5759918 177.688,29.224 C176.695995,30.8720082 175.288009,32.1439955 173.464,33.04 C171.639991,33.9360045 169.544012,34.384 167.176,34.384 Z M193.768,9.088 C195.78401,9.088 197.567992,9.43999648 199.12,10.144 C200.672008,10.8480035 201.863996,11.8159938 202.696,13.048 C203.528004,14.2800062 203.944,15.6799922 203.944,17.248 L203.944,33.232 C203.944,33.7440026 203.688003,34 203.176,34 L199.144,34 C198.631997,34 198.376,33.7440026 198.376,33.232 L198.376,32.032 C198.376,31.9039994 198.344,31.8320001 198.28,31.816 C198.216,31.7999999 198.136,31.8239997 198.04,31.888 C196.311991,33.5520083 194.008014,34.384 191.128,34.384 C188.759988,34.384 186.816008,33.7760061 185.296,32.56 C183.775992,31.3439939 183.016,29.536012 183.016,27.136 C183.016,24.6399875 183.887991,22.696007 185.632,21.304 C187.376009,19.911993 189.831984,19.216 193,19.216 L198.088,19.216 C198.280001,19.216 198.376,19.120001 198.376,18.928 L198.376,17.824 C198.376,16.5759938 198.000004,15.6080034 197.248,14.92 C196.495996,14.2319966 195.384007,13.888 193.912,13.888 C192.791994,13.888 191.864004,14.087998 191.128,14.488 C190.391996,14.888002 189.896001,15.4399965 189.64,16.144 C189.511999,16.5920022 189.224002,16.8000002 188.776,16.768 L184.456,16.24 C184.199999,16.2079998 184.008001,16.1360006 183.88,16.024 C183.751999,15.9119994 183.704,15.7760008 183.736,15.616 C184.024001,13.6959904 185.087991,12.1280061 186.928,10.912 C188.768009,9.69599392 191.047986,9.088 193.768,9.088 Z M192.664,29.968 C194.232008,29.968 195.575994,29.5520042 196.696,28.72 C197.816006,27.8879958 198.376,26.8320064 198.376,25.552 L198.376,23.344 C198.376,23.151999 198.280001,23.056 198.088,23.056 L194.104,23.056 C192.407992,23.056 191.064005,23.3759968 190.072,24.016 C189.079995,24.6560032 188.584,25.5679941 188.584,26.752 C188.584,27.7760051 188.967996,28.5679972 189.736,29.128 C190.504004,29.6880028 191.479994,29.968 192.664,29.968 Z M220.888,9.184 C221.816005,9.184 222.663996,9.35999824 223.432,9.712 C223.816002,9.90400096 223.96,10.2239978 223.864,10.672 L223.096,14.656 C223.064,14.9120013 222.976001,15.0719997 222.832,15.136 C222.687999,15.2000003 222.472001,15.2000003 222.184,15.136 C221.799998,15.0079994 221.288003,14.944 220.648,14.944 C220.263998,14.944 219.960001,14.9599998 219.736,14.992 C218.391993,15.0560003 217.272004,15.5279956 216.376,16.408 C215.479996,17.2880044 215.032,18.431993 215.032,19.84 L215.032,33.232 C215.032,33.7440026 214.776003,34 214.264,34 L210.232,34 C209.719997,34 209.464,33.7440026 209.464,33.232 L209.464,10.24 C209.464,9.72799744 209.719997,9.472 210.232,9.472 L214.264,9.472 C214.776003,9.472 215.032,9.72799744 215.032,10.24 L215.032,12.112 C215.032,12.2400006 215.064,12.3199998 215.128,12.352 C215.192,12.3840002 215.256,12.3360006 215.32,12.208 C216.664007,10.1919899 218.519988,9.184 220.888,9.184 Z M240.952,13.216 C240.952,13.7280026 240.696003,13.984 240.184,13.984 L235.528,13.984 C235.335999,13.984 235.24,14.079999 235.24,14.272 L235.24,25.6 C235.24,26.8480062 235.503997,27.7439973 236.032,28.288 C236.560003,28.8320027 237.399994,29.104 238.552,29.104 L239.8,29.104 C240.312003,29.104 240.568,29.3599974 240.568,29.872 L240.568,33.088 C240.568,33.6000026 240.312003,33.8719998 239.8,33.904 L237.496,33.952 C234.967987,33.952 233.080006,33.5120044 231.832,32.632 C230.583994,31.7519956 229.944,30.112012 229.912,27.712 L229.912,14.272 C229.912,14.079999 229.816001,13.984 229.624,13.984 L227.128,13.984 C226.615997,13.984 226.36,13.7280026 226.36,13.216 L226.36,10.24 C226.36,9.72799744 226.615997,9.472 227.128,9.472 L229.624,9.472 C229.816001,9.472 229.912,9.37600096 229.912,9.184 L229.912,3.808 C229.912,3.29599744 230.167997,3.04 230.68,3.04 L234.472,3.04 C234.984003,3.04 235.24,3.29599744 235.24,3.808 L235.24,9.184 C235.24,9.37600096 235.335999,9.472 235.528,9.472 L240.184,9.472 C240.696003,9.472 240.952,9.72799744 240.952,10.24 L240.952,13.216 Z M256.408,29.68 C257.592006,29.6479998 258.623996,29.4000023 259.504,28.936 C260.384004,28.4719977 261.095997,27.840004 261.64,27.04 C261.800001,26.7839987 262.007999,26.656 262.264,26.656 C262.424001,26.656 262.567999,26.7039995 262.696,26.8 L265,28.624 C265.224001,28.8480011 265.336,29.055999 265.336,29.248 C265.336,29.3760006 265.288,29.5199992 265.192,29.68 C264.263995,31.1520074 263.000008,32.3039958 261.4,33.136 C259.799992,33.9680042 257.96001,34.384 255.88,34.384 C253.351987,34.384 251.232009,33.784006 249.52,32.584 C247.807991,31.383994 246.568004,29.7120107 245.8,27.568 C245.159997,25.8079912 244.84,23.824011 244.84,21.616 C244.84,19.407989 245.015998,17.7120059 245.368,16.528 C245.976003,14.2559886 247.175991,12.4480067 248.968,11.104 C250.760009,9.75999328 252.935987,9.088 255.496,9.088 C261.48003,9.088 264.983995,12.3679672 266.008,18.928 C266.168001,19.9840053 266.28,21.2959922 266.344,22.864 C266.344,23.3760026 266.088003,23.632 265.576,23.632 L250.696,23.632 C250.503999,23.632 250.408,23.727999 250.408,23.92 C250.408,24.7840043 250.503999,25.4879973 250.696,26.032 C251.048002,27.1840058 251.719995,28.0799968 252.712,28.72 C253.704005,29.3600032 254.935993,29.68 256.408,29.68 Z M255.448,13.888 C254.231994,13.888 253.232004,14.183997 252.448,14.776 C251.663996,15.368003 251.128001,16.1919947 250.84,17.248 C250.615999,17.8880032 250.488,18.5599965 250.456,19.264 C250.424,19.456001 250.503999,19.552 250.696,19.552 L260.344,19.552 C260.536001,19.552 260.632,19.456001 260.632,19.264 C260.503999,18.3039952 260.408,17.728001 260.344,17.536 C260.055999,16.4159944 259.488004,15.5280033 258.64,14.872 C257.791996,14.2159967 256.728006,13.888 255.448,13.888 Z M272.248,34 C271.735997,34 271.48,33.7440026 271.48,33.232 L271.48,1.168 C271.48,0.65599744 271.735997,0.4 272.248,0.4 L276.28,0.4 C276.792003,0.4 277.048,0.65599744 277.048,1.168 L277.048,33.232 C277.048,33.7440026 276.792003,34 276.28,34 L272.248,34 Z M294.088,29.68 C295.272006,29.6479998 296.303996,29.4000023 297.184,28.936 C298.064004,28.4719977 298.775997,27.840004 299.32,27.04 C299.480001,26.7839987 299.687999,26.656 299.944,26.656 C300.104001,26.656 300.247999,26.7039995 300.376,26.8 L302.68,28.624 C302.904001,28.8480011 303.016,29.055999 303.016,29.248 C303.016,29.3760006 302.968,29.5199992 302.872,29.68 C301.943995,31.1520074 300.680008,32.3039958 299.08,33.136 C297.479992,33.9680042 295.64001,34.384 293.56,34.384 C291.031987,34.384 288.912009,33.784006 287.2,32.584 C285.487991,31.383994 284.248004,29.7120107 283.48,27.568 C282.839997,25.8079912 282.52,23.824011 282.52,21.616 C282.52,19.407989 282.695998,17.7120059 283.048,16.528 C283.656003,14.2559886 284.855991,12.4480067 286.648,11.104 C288.440009,9.75999328 290.615987,9.088 293.176,9.088 C299.16003,9.088 302.663995,12.3679672 303.688,18.928 C303.848001,19.9840053 303.96,21.2959922 304.024,22.864 C304.024,23.3760026 303.768003,23.632 303.256,23.632 L288.376,23.632 C288.183999,23.632 288.088,23.727999 288.088,23.92 C288.088,24.7840043 288.183999,25.4879973 288.376,26.032 C288.728002,27.1840058 289.399995,28.0799968 290.392,28.72 C291.384005,29.3600032 292.615993,29.68 294.088,29.68 Z M293.128,13.888 C291.911994,13.888 290.912004,14.183997 290.128,14.776 C289.343996,15.368003 288.808001,16.1919947 288.52,17.248 C288.295999,17.8880032 288.168,18.5599965 288.136,19.264 C288.104,19.456001 288.183999,19.552 288.376,19.552 L298.024,19.552 C298.216001,19.552 298.312,19.456001 298.312,19.264 C298.183999,18.3039952 298.088,17.728001 298.024,17.536 C297.735999,16.4159944 297.168004,15.5280033 296.32,14.872 C295.471996,14.2159967 294.408006,13.888 293.128,13.888 Z M320.536,9.184 C321.464005,9.184 322.311996,9.35999824 323.08,9.712 C323.464002,9.90400096 323.608,10.2239978 323.512,10.672 L322.744,14.656 C322.712,14.9120013 322.624001,15.0719997 322.48,15.136 C322.335999,15.2000003 322.120001,15.2000003 321.832,15.136 C321.447998,15.0079994 320.936003,14.944 320.296,14.944 C319.911998,14.944 319.608001,14.9599998 319.384,14.992 C318.039993,15.0560003 316.920004,15.5279956 316.024,16.408 C315.127996,17.2880044 314.68,18.431993 314.68,19.84 L314.68,33.232 C314.68,33.7440026 314.424003,34 313.912,34 L309.88,34 C309.367997,34 309.112,33.7440026 309.112,33.232 L309.112,10.24 C309.112,9.72799744 309.367997,9.472 309.88,9.472 L313.912,9.472 C314.424003,9.472 314.68,9.72799744 314.68,10.24 L314.68,12.112 C314.68,12.2400006 314.712,12.3199998 314.776,12.352 C314.84,12.3840002 314.904,12.3360006 314.968,12.208 C316.312007,10.1919899 318.167988,9.184 320.536,9.184 Z M336.28,9.088 C338.29601,9.088 340.079992,9.43999648 341.632,10.144 C343.184008,10.8480035 344.375996,11.8159938 345.208,13.048 C346.040004,14.2800062 346.456,15.6799922 346.456,17.248 L346.456,33.232 C346.456,33.7440026 346.200003,34 345.688,34 L341.656,34 C341.143997,34 340.888,33.7440026 340.888,33.232 L340.888,32.032 C340.888,31.9039994 340.856,31.8320001 340.792,31.816 C340.728,31.7999999 340.648,31.8239997 340.552,31.888 C338.823991,33.5520083 336.520014,34.384 333.64,34.384 C331.271988,34.384 329.328008,33.7760061 327.808,32.56 C326.287992,31.3439939 325.528,29.536012 325.528,27.136 C325.528,24.6399875 326.399991,22.696007 328.144,21.304 C329.888009,19.911993 332.343984,19.216 335.512,19.216 L340.6,19.216 C340.792001,19.216 340.888,19.120001 340.888,18.928 L340.888,17.824 C340.888,16.5759938 340.512004,15.6080034 339.76,14.92 C339.007996,14.2319966 337.896007,13.888 336.424,13.888 C335.303994,13.888 334.376004,14.087998 333.64,14.488 C332.903996,14.888002 332.408001,15.4399965 332.152,16.144 C332.023999,16.5920022 331.736002,16.8000002 331.288,16.768 L326.968,16.24 C326.711999,16.2079998 326.520001,16.1360006 326.392,16.024 C326.263999,15.9119994 326.216,15.7760008 326.248,15.616 C326.536001,13.6959904 327.599991,12.1280061 329.44,10.912 C331.280009,9.69599392 333.559986,9.088 336.28,9.088 Z M335.176,29.968 C336.744008,29.968 338.087994,29.5520042 339.208,28.72 C340.328006,27.8879958 340.888,26.8320064 340.888,25.552 L340.888,23.344 C340.888,23.151999 340.792001,23.056 340.6,23.056 L336.616,23.056 C334.919992,23.056 333.576005,23.3759968 332.584,24.016 C331.591995,24.6560032 331.096,25.5679941 331.096,26.752 C331.096,27.7760051 331.479996,28.5679972 332.248,29.128 C333.016004,29.6880028 333.991994,29.968 335.176,29.968 Z M314.392,59.168 C314.392,58.6559974 314.647997,58.4 315.16,58.4 L319.192,58.4 C319.704003,58.4 319.96,58.6559974 319.96,59.168 L319.96,91.232 C319.96,91.7440026 319.704003,92 319.192,92 L315.16,92 C314.647997,92 314.392,91.7440026 314.392,91.232 L314.392,89.984 C314.392,89.8559994 314.352,89.7760002 314.272,89.744 C314.192,89.7119998 314.12,89.7599994 314.056,89.888 C312.679993,91.5520083 310.856011,92.384 308.584,92.384 C306.343989,92.384 304.424008,91.784006 302.824,90.584 C301.223992,89.383994 300.072004,87.7440104 299.368,85.664 C298.791997,83.871991 298.504,81.872011 298.504,79.664 C298.504,77.3919886 298.775997,75.4400082 299.32,73.808 C300.024004,71.6959894 301.159992,70.0480059 302.728,68.864 C304.296008,67.6799941 306.247988,67.088 308.584,67.088 C310.824011,67.088 312.647993,67.8719922 314.056,69.44 C314.12,69.5360005 314.192,69.5760001 314.272,69.56 C314.352,69.5439999 314.392,69.4720006 314.392,69.344 L314.392,59.168 Z M313.192,85.28 C313.928004,84.0319938 314.296,82.1760123 314.296,79.712 C314.296,77.2159875 313.896004,75.3120066 313.096,74 C312.231996,72.591993 311.032008,71.888 309.496,71.888 C307.831992,71.888 306.552004,72.5599933 305.656,73.904 C304.727995,75.312007 304.264,77.2639875 304.264,79.76 C304.264,82.0640115 304.647996,83.8879933 305.416,85.232 C306.248004,86.7680077 307.591991,87.536 309.448,87.536 C311.048008,87.536 312.295996,86.7840075 313.192,85.28 Z M336.952,87.68 C338.136006,87.6479998 339.167996,87.4000023 340.048,86.936 C340.928004,86.4719977 341.639997,85.840004 342.184,85.04 C342.344001,84.7839987 342.551999,84.656 342.808,84.656 C342.968001,84.656 343.111999,84.7039995 343.24,84.8 L345.544,86.624 C345.768001,86.8480011 345.88,87.055999 345.88,87.248 C345.88,87.3760006 345.832,87.5199992 345.736,87.68 C344.807995,89.1520074 343.544008,90.3039958 341.944,91.136 C340.343992,91.9680042 338.50401,92.384 336.424,92.384 C333.895987,92.384 331.776009,91.784006 330.064,90.584 C328.351991,89.383994 327.112004,87.7120107 326.344,85.568 C325.703997,83.8079912 325.384,81.824011 325.384,79.616 C325.384,77.407989 325.559998,75.7120059 325.912,74.528 C326.520003,72.2559886 327.719991,70.4480067 329.512,69.104 C331.304009,67.7599933 333.479987,67.088 336.04,67.088 C342.02403,67.088 345.527995,70.3679672 346.552,76.928 C346.712001,77.9840053 346.824,79.2959922 346.888,80.864 C346.888,81.3760026 346.632003,81.632 346.12,81.632 L331.24,81.632 C331.047999,81.632 330.952,81.727999 330.952,81.92 C330.952,82.7840043 331.047999,83.4879973 331.24,84.032 C331.592002,85.1840058 332.263995,86.0799968 333.256,86.72 C334.248005,87.3600032 335.479993,87.68 336.952,87.68 Z M335.992,71.888 C334.775994,71.888 333.776004,72.183997 332.992,72.776 C332.207996,73.368003 331.672001,74.1919947 331.384,75.248 C331.159999,75.8880032 331.032,76.5599965 331,77.264 C330.968,77.456001 331.047999,77.552 331.24,77.552 L340.888,77.552 C341.080001,77.552 341.176,77.456001 341.176,77.264 C341.047999,76.3039952 340.952,75.728001 340.888,75.536 C340.599999,74.4159944 340.032004,73.5280033 339.184,72.872 C338.335996,72.2159967 337.272006,71.888 335.992,71.888 Z M124.168,150 C123.655997,150 123.4,149.744003 123.4,149.232 L123.4,117.168 C123.4,116.655997 123.655997,116.4 124.168,116.4 L128.2,116.4 C128.712003,116.4 128.968,116.655997 128.968,117.168 L128.968,149.232 C128.968,149.744003 128.712003,150 128.2,150 L124.168,150 Z M147.208,125.088 C149.832013,125.088 151.919992,125.855992 153.472,127.392 C155.024008,128.928008 155.8,131.023987 155.8,133.68 L155.8,149.232 C155.8,149.744003 155.544003,150 155.032,150 L151,150 C150.487997,150 150.232,149.744003 150.232,149.232 L150.232,134.832 C150.232,133.359993 149.808004,132.168005 148.96,131.256 C148.111996,130.343995 147.000007,129.888 145.624,129.888 C144.247993,129.888 143.136004,130.335996 142.288,131.232 C141.439996,132.128004 141.016,133.311993 141.016,134.784 L141.016,149.232 C141.016,149.744003 140.760003,150 140.248,150 L136.216,150 C135.703997,150 135.448,149.744003 135.448,149.232 L135.448,126.24 C135.448,125.727997 135.703997,125.472 136.216,125.472 L140.248,125.472 C140.760003,125.472 141.016,125.727997 141.016,126.24 L141.016,127.536 C141.016,127.664001 141.048,127.744 141.112,127.776 C141.176,127.808 141.24,127.776 141.304,127.68 C142.648007,125.951991 144.615987,125.088 147.208,125.088 Z M173.32,125.088 C175.944013,125.088 178.031992,125.855992 179.584,127.392 C181.136008,128.928008 181.912,131.023987 181.912,133.68 L181.912,149.232 C181.912,149.744003 181.656003,150 181.144,150 L177.112,150 C176.599997,150 176.344,149.744003 176.344,149.232 L176.344,134.832 C176.344,133.359993 175.920004,132.168005 175.072,131.256 C174.223996,130.343995 173.112007,129.888 171.736,129.888 C170.359993,129.888 169.248004,130.335996 168.4,131.232 C167.551996,132.128004 167.128,133.311993 167.128,134.784 L167.128,149.232 C167.128,149.744003 166.872003,150 166.36,150 L162.328,150 C161.815997,150 161.56,149.744003 161.56,149.232 L161.56,126.24 C161.56,125.727997 161.815997,125.472 162.328,125.472 L166.36,125.472 C166.872003,125.472 167.128,125.727997 167.128,126.24 L167.128,127.536 C167.128,127.664001 167.16,127.744 167.224,127.776 C167.288,127.808 167.352,127.776 167.416,127.68 C168.760007,125.951991 170.727987,125.088 173.32,125.088 Z M198.136,150.384 C195.607987,150.384 193.432009,149.744006 191.608,148.464 C189.783991,147.183994 188.520004,145.408011 187.816,143.136 C187.271997,141.567992 187,139.74401 187,137.664 C187,135.61599 187.255997,133.792008 187.768,132.192 C188.504004,129.951989 189.783991,128.208006 191.608,126.96 C193.432009,125.711994 195.623987,125.088 198.184,125.088 C200.616012,125.088 202.719991,125.711994 204.496,126.96 C206.272009,128.208006 207.527996,129.935989 208.264,132.144 C208.840003,133.680008 209.128,135.503989 209.128,137.616 C209.128,139.63201 208.856003,141.455992 208.312,143.088 C207.575996,145.360011 206.312009,147.143994 204.52,148.44 C202.727991,149.736006 200.600012,150.384 198.136,150.384 Z M198.136,145.584 C199.320006,145.584 200.335996,145.248003 201.184,144.576 C202.032004,143.903997 202.631998,142.960006 202.984,141.744 C203.336002,140.719995 203.512,139.376008 203.512,137.712 C203.512,136.143992 203.352002,134.800006 203.032,133.68 C202.679998,132.463994 202.064004,131.528003 201.184,130.872 C200.303996,130.215997 199.256006,129.888 198.04,129.888 C196.823994,129.888 195.784004,130.215997 194.92,130.872 C194.055996,131.528003 193.448002,132.463994 193.096,133.68 C192.775998,134.800006 192.616,136.143992 192.616,137.712 C192.616,139.280008 192.775998,140.623994 193.096,141.744 C193.448002,142.960006 194.063996,143.903997 194.944,144.576 C195.824004,145.248003 196.887994,145.584 198.136,145.584 Z M220.024,150 C219.575998,150 219.288001,149.792002 219.16,149.376 L211.576,126.336 C211.544,126.24 211.528,126.128001 211.528,126 C211.528,125.647998 211.751998,125.472 212.2,125.472 L216.712,125.472 C217.160002,125.472 217.447999,125.679998 217.576,126.096 L222.136,142.032 C222.2,142.160001 222.272,142.224 222.352,142.224 C222.432,142.224 222.488,142.160001 222.52,142.032 L227.08,126.144 C227.208001,125.695998 227.495998,125.472 227.944,125.472 L232.456,125.52 C232.712001,125.52 232.903999,125.599999 233.032,125.76 C233.160001,125.920001 233.176,126.127999 233.08,126.384 L225.544,149.376 C225.415999,149.792002 225.128002,150 224.68,150 L220.024,150 Z M245.704,125.088 C247.72001,125.088 249.503992,125.439996 251.056,126.144 C252.608008,126.848004 253.799996,127.815994 254.632,129.048 C255.464004,130.280006 255.88,131.679992 255.88,133.248 L255.88,149.232 C255.88,149.744003 255.624003,150 255.112,150 L251.08,150 C250.567997,150 250.312,149.744003 250.312,149.232 L250.312,148.032 C250.312,147.903999 250.28,147.832 250.216,147.816 C250.152,147.8 250.072,147.824 249.976,147.888 C248.247991,149.552008 245.944014,150.384 243.064,150.384 C240.695988,150.384 238.752008,149.776006 237.232,148.56 C235.711992,147.343994 234.952,145.536012 234.952,143.136 C234.952,140.639988 235.823991,138.696007 237.568,137.304 C239.312009,135.911993 241.767984,135.216 244.936,135.216 L250.024,135.216 C250.216001,135.216 250.312,135.120001 250.312,134.928 L250.312,133.824 C250.312,132.575994 249.936004,131.608003 249.184,130.92 C248.431996,130.231997 247.320007,129.888 245.848,129.888 C244.727994,129.888 243.800004,130.087998 243.064,130.488 C242.327996,130.888002 241.832001,131.439996 241.576,132.144 C241.447999,132.592002 241.160002,132.8 240.712,132.768 L236.392,132.24 C236.135999,132.208 235.944001,132.136001 235.816,132.024 C235.687999,131.911999 235.64,131.776001 235.672,131.616 C235.960001,129.69599 237.023991,128.128006 238.864,126.912 C240.704009,125.695994 242.983986,125.088 245.704,125.088 Z M244.6,145.968 C246.168008,145.968 247.511994,145.552004 248.632,144.72 C249.752006,143.887996 250.312,142.832006 250.312,141.552 L250.312,139.344 C250.312,139.151999 250.216001,139.056 250.024,139.056 L246.04,139.056 C244.343992,139.056 243.000005,139.375997 242.008,140.016 C241.015995,140.656003 240.52,141.567994 240.52,142.752 C240.52,143.776005 240.903996,144.567997 241.672,145.128 C242.440004,145.688003 243.415994,145.968 244.6,145.968 Z M271.624,150.384 C269.159988,150.384 267.032009,149.752006 265.24,148.488 C263.447991,147.223994 262.200004,145.520011 261.496,143.376 C260.983997,141.935993 260.728,140.016012 260.728,137.616 C260.728,135.311988 260.983997,133.424007 261.496,131.952 C262.168003,129.839989 263.407991,128.168006 265.216,126.936 C267.024009,125.703994 269.159988,125.088 271.624,125.088 C274.120012,125.088 276.295991,125.711994 278.152,126.96 C280.008009,128.208006 281.239997,129.775991 281.848,131.664 C281.944,131.952001 282.04,132.399997 282.136,133.008 L282.136,133.2 C282.136,133.552002 281.928002,133.776 281.512,133.872 L277.528,134.496 L277.336,134.496 C276.983998,134.496 276.76,134.304002 276.664,133.92 L276.52,133.296 C276.295999,132.335995 275.736004,131.528003 274.84,130.872 C273.943996,130.215997 272.872006,129.888 271.624,129.888 C270.407994,129.888 269.376004,130.199997 268.528,130.824 C267.679996,131.448003 267.112001,132.303995 266.824,133.392 C266.503998,134.416005 266.344,135.839991 266.344,137.664 C266.344,139.424009 266.487999,140.847995 266.776,141.936 C267.096002,143.056006 267.671996,143.943997 268.504,144.6 C269.336004,145.256003 270.375994,145.584 271.624,145.584 C272.840006,145.584 273.887996,145.272003 274.768,144.648 C275.648004,144.023997 276.215999,143.200005 276.472,142.176 L276.52,141.936 C276.552,141.775999 276.655999,141.616001 276.832,141.456 C277.008001,141.295999 277.207999,141.232 277.432,141.264 L281.416,141.888 C281.832002,141.984 282.04,142.207998 282.04,142.56 C282.04,142.752001 281.976001,143.135997 281.848,143.712 C281.239997,145.76001 280.008009,147.383994 278.152,148.584 C276.295991,149.784006 274.120012,150.384 271.624,150.384 Z M290.056,122.4 C288.999995,122.4 288.136003,122.072003 287.464,121.416 C286.791997,120.759997 286.456,119.920005 286.456,118.896 C286.456,117.871995 286.791997,117.040003 287.464,116.4 C288.136003,115.759997 288.999995,115.44 290.056,115.44 C291.112005,115.44 291.967997,115.759997 292.624,116.4 C293.280003,117.040003 293.608,117.871995 293.608,118.896 C293.608,119.920005 293.280003,120.759997 292.624,121.416 C291.967997,122.072003 291.112005,122.4 290.056,122.4 Z M288.04,150 C287.527997,150 287.272,149.744003 287.272,149.232 L287.272,126.24 C287.272,125.727997 287.527997,125.472 288.04,125.472 L292.072,125.472 C292.584003,125.472 292.84,125.727997 292.84,126.24 L292.84,149.232 C292.84,149.744003 292.584003,150 292.072,150 L288.04,150 Z M309.592,150.384 C307.063987,150.384 304.888009,149.744006 303.064,148.464 C301.239991,147.183994 299.976004,145.408011 299.272,143.136 C298.727997,141.567992 298.456,139.74401 298.456,137.664 C298.456,135.61599 298.711997,133.792008 299.224,132.192 C299.960004,129.951989 301.239991,128.208006 303.064,126.96 C304.888009,125.711994 307.079987,125.088 309.64,125.088 C312.072012,125.088 314.175991,125.711994 315.952,126.96 C317.728009,128.208006 318.983996,129.935989 319.72,132.144 C320.296003,133.680008 320.584,135.503989 320.584,137.616 C320.584,139.63201 320.312003,141.455992 319.768,143.088 C319.031996,145.360011 317.768009,147.143994 315.976,148.44 C314.183991,149.736006 312.056012,150.384 309.592,150.384 Z M309.592,145.584 C310.776006,145.584 311.791996,145.248003 312.64,144.576 C313.488004,143.903997 314.087998,142.960006 314.44,141.744 C314.792002,140.719995 314.968,139.376008 314.968,137.712 C314.968,136.143992 314.808002,134.800006 314.488,133.68 C314.135998,132.463994 313.520004,131.528003 312.64,130.872 C311.759996,130.215997 310.712006,129.888 309.496,129.888 C308.279994,129.888 307.240004,130.215997 306.376,130.872 C305.511996,131.528003 304.904002,132.463994 304.552,133.68 C304.231998,134.800006 304.072,136.143992 304.072,137.712 C304.072,139.280008 304.231998,140.623994 304.552,141.744 C304.904002,142.960006 305.519996,143.903997 306.4,144.576 C307.280004,145.248003 308.343994,145.584 309.592,145.584 Z M307.528,122.016 C307.079998,122.016 306.856,121.840002 306.856,121.488 C306.856,121.327999 306.888,121.2 306.952,121.104 L309.448,116.544 C309.640001,116.191998 309.943998,116.016 310.36,116.016 L314.152,116.016 C314.568002,116.016 314.776,116.159999 314.776,116.448 C314.776,116.576001 314.728,116.735999 314.632,116.928 L311.56,121.536 C311.367999,121.856002 311.064002,122.016 310.648,122.016 L307.528,122.016 Z M337.624,125.088 C340.248013,125.088 342.335992,125.855992 343.888,127.392 C345.440008,128.928008 346.216,131.023987 346.216,133.68 L346.216,149.232 C346.216,149.744003 345.960003,150 345.448,150 L341.416,150 C340.903997,150 340.648,149.744003 340.648,149.232 L340.648,134.832 C340.648,133.359993 340.224004,132.168005 339.376,131.256 C338.527996,130.343995 337.416007,129.888 336.04,129.888 C334.663993,129.888 333.552004,130.335996 332.704,131.232 C331.855996,132.128004 331.432,133.311993 331.432,134.784 L331.432,149.232 C331.432,149.744003 331.176003,150 330.664,150 L326.632,150 C326.119997,150 325.864,149.744003 325.864,149.232 L325.864,126.24 C325.864,125.727997 326.119997,125.472 326.632,125.472 L330.664,125.472 C331.176003,125.472 331.432,125.727997 331.432,126.24 L331.432,127.536 C331.432,127.664001 331.464,127.744 331.528,127.776 C331.592,127.808 331.656,127.776 331.72,127.68 C333.064007,125.951991 335.031987,125.088 337.624,125.088 Z M328.024,217.552 C327.799999,217.552 327.688,217.296003 327.688,216.784 L327.688,213.712 C327.688,213.199997 327.799999,212.944 328.024,212.944 L328.312,212.944 C329.624007,212.944 330.647996,212.824001 331.384,212.584 C332.120004,212.343999 332.719998,211.888003 333.184,211.216 C333.648002,210.543997 334.071998,209.536007 334.456,208.192 C334.52,208.031999 334.52,207.904 334.456,207.808 L326.632,184.336 C326.6,184.24 326.584,184.128001 326.584,184 C326.584,183.647998 326.807998,183.472 327.256,183.472 L331.576,183.472 C332.024002,183.472 332.311999,183.679998 332.44,184.096 L337.144,199.984 C337.208,200.112001 337.28,200.176 337.36,200.176 C337.44,200.176 337.496,200.112001 337.528,199.984 L342.088,184.096 C342.216001,183.679998 342.503998,183.472 342.952,183.472 L347.272,183.472 C347.560001,183.472 347.759999,183.543999 347.872,183.688 C347.984001,183.832001 347.992,184.047999 347.896,184.336 L339.496,209.344 C338.695996,211.616011 337.912004,213.311994 337.144,214.432 C336.375996,215.552006 335.328007,216.351998 334,216.832 C332.671993,217.312002 330.792012,217.552 328.36,217.552 L328.024,217.552 Z M23.656,236.432 C23.656,236.944003 23.4000026,237.2 22.888,237.2 L6.76,237.2 C6.56799904,237.2 6.472,237.295999 6.472,237.488 L6.472,246.368 C6.472,246.560001 6.56799904,246.656 6.76,246.656 L17.512,246.656 C18.0240026,246.656 18.28,246.911997 18.28,247.424 L18.28,250.688 C18.28,251.200003 18.0240026,251.456 17.512,251.456 L6.76,251.456 C6.56799904,251.456 6.472,251.551999 6.472,251.744 L6.472,260.912 C6.472,261.104001 6.56799904,261.2 6.76,261.2 L22.888,261.2 C23.4000026,261.2 23.656,261.455997 23.656,261.968 L23.656,265.232 C23.656,265.744003 23.4000026,266 22.888,266 L1.672,266 C1.15999744,266 0.904,265.744003 0.904,265.232 L0.904,233.168 C0.904,232.655997 1.15999744,232.4 1.672,232.4 L22.888,232.4 C23.4000026,232.4 23.656,232.655997 23.656,233.168 L23.656,236.432 Z M55.048,241.088 C57.5120123,241.088 59.439993,241.831993 60.832,243.32 C62.224007,244.808007 62.92,246.879987 62.92,249.536 L62.92,265.232 C62.92,265.744003 62.6640026,266 62.152,266 L58.168,266 C57.6559974,266 57.4,265.744003 57.4,265.232 L57.4,250.688 C57.4,249.215993 57.0080039,248.048004 56.224,247.184 C55.4399961,246.319996 54.3920066,245.888 53.08,245.888 C51.7679934,245.888 50.6960042,246.319996 49.864,247.184 C49.0319958,248.048004 48.616,249.199993 48.616,250.64 L48.616,265.232 C48.616,265.744003 48.3600026,266 47.848,266 L43.864,266 C43.3519974,266 43.096,265.744003 43.096,265.232 L43.096,250.688 C43.096,249.215993 42.696004,248.048004 41.896,247.184 C41.095996,246.319996 40.0400066,245.888 38.728,245.888 C37.5119939,245.888 36.5120039,246.239996 35.728,246.944 C34.9439961,247.648004 34.4880006,248.607994 34.36,249.824 L34.36,265.232 C34.36,265.744003 34.1040026,266 33.592,266 L29.56,266 C29.0479974,266 28.792,265.744003 28.792,265.232 L28.792,242.24 C28.792,241.727997 29.0479974,241.472 29.56,241.472 L33.592,241.472 C34.1040026,241.472 34.36,241.727997 34.36,242.24 L34.36,243.536 C34.36,243.664001 34.3999996,243.744 34.48,243.776 C34.5600004,243.808 34.6319997,243.760001 34.696,243.632 C36.0720069,241.935992 38.0879867,241.088 40.744,241.088 C42.3120078,241.088 43.6799942,241.399997 44.848,242.024 C46.0160058,242.648003 46.9199968,243.567994 47.56,244.784 C47.6240003,244.88 47.6959996,244.928 47.776,244.928 C47.8560004,244.928 47.9119998,244.864001 47.944,244.736 C48.6800037,243.519994 49.6719938,242.608003 50.92,242 C52.1680062,241.391997 53.5439925,241.088 55.048,241.088 Z M89.416,247.808 C89.9920029,249.568009 90.28,251.567989 90.28,253.808 C90.28,256.080011 90.0080027,258.031992 89.464,259.664 C88.7599965,261.776011 87.6240078,263.423994 86.056,264.608 C84.4879922,265.792006 82.5360117,266.384 80.2,266.384 C77.9599888,266.384 76.136007,265.600008 74.728,264.032 C74.6639997,263.936 74.5920004,263.896 74.512,263.912 C74.4319996,263.928 74.392,263.999999 74.392,264.128 L74.392,274.304 C74.392,274.816003 74.1360026,275.072 73.624,275.072 L69.592,275.072 C69.0799974,275.072 68.824,274.816003 68.824,274.304 L68.824,242.24 C68.824,241.727997 69.0799974,241.472 69.592,241.472 L73.624,241.472 C74.1360026,241.472 74.392,241.727997 74.392,242.24 L74.392,243.488 C74.392,243.616001 74.4319996,243.696 74.512,243.728 C74.5920004,243.76 74.6639997,243.712001 74.728,243.584 C76.1040069,241.919992 77.9279886,241.088 80.2,241.088 C82.4400112,241.088 84.359992,241.687994 85.96,242.888 C87.560008,244.088006 88.7119965,245.72799 89.416,247.808 Z M83.128,259.568 C84.0560046,258.159993 84.52,256.208012 84.52,253.712 C84.52,251.407988 84.1360038,249.584007 83.368,248.24 C82.5359958,246.703992 81.1920093,245.936 79.336,245.936 C77.735992,245.936 76.4880045,246.687992 75.592,248.192 C74.8559963,249.440006 74.488,251.295988 74.488,253.76 C74.488,256.256012 74.887996,258.159993 75.688,259.472 C76.5520043,260.880007 77.7519923,261.584 79.288,261.584 C80.9520083,261.584 82.2319955,260.912007 83.128,259.568 Z M106.648,241.184 C107.576005,241.184 108.423996,241.359998 109.192,241.712 C109.576002,241.904001 109.72,242.223998 109.624,242.672 L108.856,246.656 C108.824,246.912001 108.736001,247.072 108.592,247.136 C108.447999,247.2 108.232001,247.2 107.944,247.136 C107.559998,247.007999 107.048003,246.944 106.408,246.944 C106.023998,246.944 105.720001,246.96 105.496,246.992 C104.151993,247.056 103.032004,247.527996 102.136,248.408 C101.239996,249.288004 100.792,250.431993 100.792,251.84 L100.792,265.232 C100.792,265.744003 100.536003,266 100.024,266 L95.992,266 C95.4799974,266 95.224,265.744003 95.224,265.232 L95.224,242.24 C95.224,241.727997 95.4799974,241.472 95.992,241.472 L100.024,241.472 C100.536003,241.472 100.792,241.727997 100.792,242.24 L100.792,244.112 C100.792,244.240001 100.824,244.32 100.888,244.352 C100.952,244.384 101.016,244.336001 101.08,244.208 C102.424007,242.19199 104.279988,241.184 106.648,241.184 Z M123.784,261.68 C124.968006,261.648 125.999996,261.400002 126.88,260.936 C127.760004,260.471998 128.471997,259.840004 129.016,259.04 C129.176001,258.783999 129.383999,258.656 129.64,258.656 C129.800001,258.656 129.943999,258.704 130.072,258.8 L132.376,260.624 C132.600001,260.848001 132.712,261.055999 132.712,261.248 C132.712,261.376001 132.664,261.519999 132.568,261.68 C131.639995,263.152007 130.376008,264.303996 128.776,265.136 C127.175992,265.968004 125.33601,266.384 123.256,266.384 C120.727987,266.384 118.608009,265.784006 116.896,264.584 C115.183991,263.383994 113.944004,261.712011 113.176,259.568 C112.535997,257.807991 112.216,255.824011 112.216,253.616 C112.216,251.407989 112.391998,249.712006 112.744,248.528 C113.352003,246.255989 114.551991,244.448007 116.344,243.104 C118.136009,241.759993 120.311987,241.088 122.872,241.088 C128.85603,241.088 132.359995,244.367967 133.384,250.928 C133.544001,251.984005 133.656,253.295992 133.72,254.864 C133.72,255.376003 133.464003,255.632 132.952,255.632 L118.072,255.632 C117.879999,255.632 117.784,255.727999 117.784,255.92 C117.784,256.784004 117.879999,257.487997 118.072,258.032 C118.424002,259.184006 119.095995,260.079997 120.088,260.72 C121.080005,261.360003 122.311993,261.68 123.784,261.68 Z M122.824,245.888 C121.607994,245.888 120.608004,246.183997 119.824,246.776 C119.039996,247.368003 118.504001,248.191995 118.216,249.248 C117.991999,249.888003 117.864,250.559996 117.832,251.264 C117.8,251.456001 117.879999,251.552 118.072,251.552 L127.72,251.552 C127.912001,251.552 128.008,251.456001 128.008,251.264 C127.879999,250.303995 127.784,249.728001 127.72,249.536 C127.431999,248.415994 126.864004,247.528003 126.016,246.872 C125.167996,246.215997 124.104006,245.888 122.824,245.888 Z M150.568,241.088 C153.192013,241.088 155.279992,241.855992 156.832,243.392 C158.384008,244.928008 159.16,247.023987 159.16,249.68 L159.16,265.232 C159.16,265.744003 158.904003,266 158.392,266 L154.36,266 C153.847997,266 153.592,265.744003 153.592,265.232 L153.592,250.832 C153.592,249.359993 153.168004,248.168005 152.32,247.256 C151.471996,246.343995 150.360007,245.888 148.984,245.888 C147.607993,245.888 146.496004,246.335996 145.648,247.232 C144.799996,248.128004 144.376,249.311993 144.376,250.784 L144.376,265.232 C144.376,265.744003 144.120003,266 143.608,266 L139.576,266 C139.063997,266 138.808,265.744003 138.808,265.232 L138.808,242.24 C138.808,241.727997 139.063997,241.472 139.576,241.472 L143.608,241.472 C144.120003,241.472 144.376,241.727997 144.376,242.24 L144.376,243.536 C144.376,243.664001 144.408,243.744 144.472,243.776 C144.536,243.808 144.6,243.776 144.664,243.68 C146.008007,241.951991 147.975987,241.088 150.568,241.088 Z M179.8,233.168 C179.8,232.655997 180.055997,232.4 180.568,232.4 L184.6,232.4 C185.112003,232.4 185.368,232.655997 185.368,233.168 L185.368,265.232 C185.368,265.744003 185.112003,266 184.6,266 L180.568,266 C180.055997,266 179.8,265.744003 179.8,265.232 L179.8,263.984 C179.8,263.855999 179.76,263.776 179.68,263.744 C179.6,263.712 179.528,263.759999 179.464,263.888 C178.087993,265.552008 176.264011,266.384 173.992,266.384 C171.751989,266.384 169.832008,265.784006 168.232,264.584 C166.631992,263.383994 165.480004,261.74401 164.776,259.664 C164.199997,257.871991 163.912,255.872011 163.912,253.664 C163.912,251.391989 164.183997,249.440008 164.728,247.808 C165.432004,245.695989 166.567992,244.048006 168.136,242.864 C169.704008,241.679994 171.655988,241.088 173.992,241.088 C176.232011,241.088 178.055993,241.871992 179.464,243.44 C179.528,243.536 179.6,243.576 179.68,243.56 C179.76,243.544 179.8,243.472001 179.8,243.344 L179.8,233.168 Z M178.6,259.28 C179.336004,258.031994 179.704,256.176012 179.704,253.712 C179.704,251.215988 179.304004,249.312007 178.504,248 C177.639996,246.591993 176.440008,245.888 174.904,245.888 C173.239992,245.888 171.960004,246.559993 171.064,247.904 C170.135995,249.312007 169.672,251.263988 169.672,253.76 C169.672,256.064012 170.055996,257.887993 170.824,259.232 C171.656004,260.768008 172.999991,261.536 174.856,261.536 C176.456008,261.536 177.703996,260.784008 178.6,259.28 Z M194.536,238.4 C193.479995,238.4 192.616003,238.072003 191.944,237.416 C191.271997,236.759997 190.936,235.920005 190.936,234.896 C190.936,233.871995 191.271997,233.040003 191.944,232.4 C192.616003,231.759997 193.479995,231.44 194.536,231.44 C195.592005,231.44 196.447997,231.759997 197.104,232.4 C197.760003,233.040003 198.088,233.871995 198.088,234.896 C198.088,235.920005 197.760003,236.759997 197.104,237.416 C196.447997,238.072003 195.592005,238.4 194.536,238.4 Z M192.52,266 C192.007997,266 191.752,265.744003 191.752,265.232 L191.752,242.24 C191.752,241.727997 192.007997,241.472 192.52,241.472 L196.552,241.472 C197.064003,241.472 197.32,241.727997 197.32,242.24 L197.32,265.232 C197.32,265.744003 197.064003,266 196.552,266 L192.52,266 Z M229.864,241.088 C232.328012,241.088 234.255993,241.831993 235.648,243.32 C237.040007,244.808007 237.736,246.879987 237.736,249.536 L237.736,265.232 C237.736,265.744003 237.480003,266 236.968,266 L232.984,266 C232.471997,266 232.216,265.744003 232.216,265.232 L232.216,250.688 C232.216,249.215993 231.824004,248.048004 231.04,247.184 C230.255996,246.319996 229.208007,245.888 227.896,245.888 C226.583993,245.888 225.512004,246.319996 224.68,247.184 C223.847996,248.048004 223.432,249.199993 223.432,250.64 L223.432,265.232 C223.432,265.744003 223.176003,266 222.664,266 L218.68,266 C218.167997,266 217.912,265.744003 217.912,265.232 L217.912,250.688 C217.912,249.215993 217.512004,248.048004 216.712,247.184 C215.911996,246.319996 214.856007,245.888 213.544,245.888 C212.327994,245.888 211.328004,246.239996 210.544,246.944 C209.759996,247.648004 209.304001,248.607994 209.176,249.824 L209.176,265.232 C209.176,265.744003 208.920003,266 208.408,266 L204.376,266 C203.863997,266 203.608,265.744003 203.608,265.232 L203.608,242.24 C203.608,241.727997 203.863997,241.472 204.376,241.472 L208.408,241.472 C208.920003,241.472 209.176,241.727997 209.176,242.24 L209.176,243.536 C209.176,243.664001 209.216,243.744 209.296,243.776 C209.376,243.808 209.448,243.760001 209.512,243.632 C210.888007,241.935992 212.903987,241.088 215.56,241.088 C217.128008,241.088 218.495994,241.399997 219.664,242.024 C220.832006,242.648003 221.735997,243.567994 222.376,244.784 C222.44,244.88 222.512,244.928 222.592,244.928 C222.672,244.928 222.728,244.864001 222.76,244.736 C223.496004,243.519994 224.487994,242.608003 225.736,242 C226.984006,241.391997 228.359992,241.088 229.864,241.088 Z M246.568,238.4 C245.511995,238.4 244.648003,238.072003 243.976,237.416 C243.303997,236.759997 242.968,235.920005 242.968,234.896 C242.968,233.871995 243.303997,233.040003 243.976,232.4 C244.648003,231.759997 245.511995,231.44 246.568,231.44 C247.624005,231.44 248.479997,231.759997 249.136,232.4 C249.792003,233.040003 250.12,233.871995 250.12,234.896 C250.12,235.920005 249.792003,236.759997 249.136,237.416 C248.479997,238.072003 247.624005,238.4 246.568,238.4 Z M244.552,266 C244.039997,266 243.784,265.744003 243.784,265.232 L243.784,242.24 C243.784,241.727997 244.039997,241.472 244.552,241.472 L248.584,241.472 C249.096003,241.472 249.352,241.727997 249.352,242.24 L249.352,265.232 C249.352,265.744003 249.096003,266 248.584,266 L244.552,266 Z M266.632,261.68 C267.816006,261.648 268.847996,261.400002 269.728,260.936 C270.608004,260.471998 271.319997,259.840004 271.864,259.04 C272.024001,258.783999 272.231999,258.656 272.488,258.656 C272.648001,258.656 272.791999,258.704 272.92,258.8 L275.224,260.624 C275.448001,260.848001 275.56,261.055999 275.56,261.248 C275.56,261.376001 275.512,261.519999 275.416,261.68 C274.487995,263.152007 273.224008,264.303996 271.624,265.136 C270.023992,265.968004 268.18401,266.384 266.104,266.384 C263.575987,266.384 261.456009,265.784006 259.744,264.584 C258.031991,263.383994 256.792004,261.712011 256.024,259.568 C255.383997,257.807991 255.064,255.824011 255.064,253.616 C255.064,251.407989 255.239998,249.712006 255.592,248.528 C256.200003,246.255989 257.399991,244.448007 259.192,243.104 C260.984009,241.759993 263.159987,241.088 265.72,241.088 C271.70403,241.088 275.207995,244.367967 276.232,250.928 C276.392001,251.984005 276.504,253.295992 276.568,254.864 C276.568,255.376003 276.312003,255.632 275.8,255.632 L260.92,255.632 C260.727999,255.632 260.632,255.727999 260.632,255.92 C260.632,256.784004 260.727999,257.487997 260.92,258.032 C261.272002,259.184006 261.943995,260.079997 262.936,260.72 C263.928005,261.360003 265.159993,261.68 266.632,261.68 Z M265.672,245.888 C264.455994,245.888 263.456004,246.183997 262.672,246.776 C261.887996,247.368003 261.352001,248.191995 261.064,249.248 C260.839999,249.888003 260.712,250.559996 260.68,251.264 C260.648,251.456001 260.727999,251.552 260.92,251.552 L270.568,251.552 C270.760001,251.552 270.856,251.456001 270.856,251.264 C270.727999,250.303995 270.632,249.728001 270.568,249.536 C270.279999,248.415994 269.712004,247.528003 268.864,246.872 C268.015996,246.215997 266.952006,245.888 265.672,245.888 Z M293.416,241.088 C296.040013,241.088 298.127992,241.855992 299.68,243.392 C301.232008,244.928008 302.008,247.023987 302.008,249.68 L302.008,265.232 C302.008,265.744003 301.752003,266 301.24,266 L297.208,266 C296.695997,266 296.44,265.744003 296.44,265.232 L296.44,250.832 C296.44,249.359993 296.016004,248.168005 295.168,247.256 C294.319996,246.343995 293.208007,245.888 291.832,245.888 C290.455993,245.888 289.344004,246.335996 288.496,247.232 C287.647996,248.128004 287.224,249.311993 287.224,250.784 L287.224,265.232 C287.224,265.744003 286.968003,266 286.456,266 L282.424,266 C281.911997,266 281.656,265.744003 281.656,265.232 L281.656,242.24 C281.656,241.727997 281.911997,241.472 282.424,241.472 L286.456,241.472 C286.968003,241.472 287.224,241.727997 287.224,242.24 L287.224,243.536 C287.224,243.664001 287.256,243.744 287.32,243.776 C287.384,243.808 287.448,243.776 287.512,243.68 C288.856007,241.951991 290.823987,241.088 293.416,241.088 Z M320.776,245.216 C320.776,245.728003 320.520003,245.984 320.008,245.984 L315.352,245.984 C315.159999,245.984 315.064,246.079999 315.064,246.272 L315.064,257.6 C315.064,258.848006 315.327997,259.743997 315.856,260.288 C316.384003,260.832003 317.223994,261.104 318.376,261.104 L319.624,261.104 C320.136003,261.104 320.392,261.359997 320.392,261.872 L320.392,265.088 C320.392,265.600003 320.136003,265.872 319.624,265.904 L317.32,265.952 C314.791987,265.952 312.904006,265.512004 311.656,264.632 C310.407994,263.751996 309.768,262.112012 309.736,259.712 L309.736,246.272 C309.736,246.079999 309.640001,245.984 309.448,245.984 L306.952,245.984 C306.439997,245.984 306.184,245.728003 306.184,245.216 L306.184,242.24 C306.184,241.727997 306.439997,241.472 306.952,241.472 L309.448,241.472 C309.640001,241.472 309.736,241.376001 309.736,241.184 L309.736,235.808 C309.736,235.295997 309.991997,235.04 310.504,235.04 L314.296,235.04 C314.808003,235.04 315.064,235.295997 315.064,235.808 L315.064,241.184 C315.064,241.376001 315.159999,241.472 315.352,241.472 L320.008,241.472 C320.520003,241.472 320.776,241.727997 320.776,242.24 L320.776,245.216 Z M335.704,266.384 C333.175987,266.384 331.000009,265.744006 329.176,264.464 C327.351991,263.183994 326.088004,261.408011 325.384,259.136 C324.839997,257.567992 324.568,255.74401 324.568,253.664 C324.568,251.61599 324.823997,249.792008 325.336,248.192 C326.072004,245.951989 327.351991,244.208006 329.176,242.96 C331.000009,241.711994 333.191987,241.088 335.752,241.088 C338.184012,241.088 340.287991,241.711994 342.064,242.96 C343.840009,244.208006 345.095996,245.935989 345.832,248.144 C346.408003,249.680008 346.696,251.503989 346.696,253.616 C346.696,255.63201 346.424003,257.455992 345.88,259.088 C345.143996,261.360011 343.880009,263.143994 342.088,264.44 C340.295991,265.736006 338.168012,266.384 335.704,266.384 Z M335.704,261.584 C336.888006,261.584 337.903996,261.248003 338.752,260.576 C339.600004,259.903997 340.199998,258.960006 340.552,257.744 C340.904002,256.719995 341.08,255.376008 341.08,253.712 C341.08,252.143992 340.920002,250.800006 340.6,249.68 C340.247998,248.463994 339.632004,247.528003 338.752,246.872 C337.871996,246.215997 336.824006,245.888 335.608,245.888 C334.391994,245.888 333.352004,246.215997 332.488,246.872 C331.623996,247.528003 331.016002,248.463994 330.664,249.68 C330.343998,250.800006 330.184,252.143992 330.184,253.712 C330.184,255.280008 330.343998,256.623994 330.664,257.744 C331.016002,258.960006 331.631996,259.903997 332.512,260.576 C333.392004,261.248003 334.455994,261.584 335.704,261.584 Z" id="Cartelera-de-Innovac" fill="#23232B"></path>
    </g>
</svg>