<?xml version="1.0" encoding="UTF-8"?>
<svg width="262px" height="119px" viewBox="0 0 262 119" version="1.1" xmlns="http://www.w3.org/2000/svg" xmlns:xlink="http://www.w3.org/1999/xlink">
    <!-- Generator: Sketch 43.1 (39012) - http://www.bohemiancoding.com/sketch -->
    <title>Cartelera de Innovac</title>
    <desc>Created with Sketch.</desc>
    <defs></defs>
    <g id="Page-1" stroke="none" stroke-width="1" fill="none" fill-rule="evenodd">
        <path d="M79.084,26.288 C77.283991,26.288 75.7000068,25.9340035 74.332,25.226 C72.9639932,24.5179965 71.9080037,23.5280064 71.164,22.256 C70.4199963,20.9839936 70.048,19.5080084 70.048,17.828 L70.048,8.936 C70.048,7.2559916 70.4199963,5.78000636 71.164,4.508 C71.9080037,3.23599364 72.9639932,2.25200348 74.332,1.556 C75.7000068,0.85999652 77.283991,0.512 79.084,0.512 C80.8600089,0.512 82.4319932,0.84799664 83.8,1.52 C85.1680068,2.19200336 86.2239963,3.13999388 86.968,4.364 C87.7120037,5.58800612 88.084,7.00399196 88.084,8.612 C88.084,8.8520012 87.9040018,8.99599976 87.544,9.044 L84.484,9.224 L84.34,9.224 C84.0519986,9.224 83.908,9.1640006 83.908,9.044 L83.908,8.828 C83.908,7.41199292 83.4700044,6.27200432 82.594,5.408 C81.7179956,4.54399568 80.5480073,4.112 79.084,4.112 C77.6199927,4.112 76.4440044,4.54399568 75.556,5.408 C74.6679956,6.27200432 74.224,7.41199292 74.224,8.828 L74.224,18.008 C74.224,19.400007 74.6679956,20.5279957 75.556,21.392 C76.4440044,22.2560043 77.6199927,22.688 79.084,22.688 C80.5480073,22.688 81.7179956,22.2620043 82.594,21.41 C83.4700044,20.5579957 83.908,19.4240071 83.908,18.008 C83.908,17.8879994 83.9619995,17.7860004 84.07,17.702 C84.1780005,17.6179996 84.3159992,17.5879999 84.484,17.612 L87.508,17.756 C87.8920019,17.8040002 88.084,17.8639996 88.084,17.936 L88.084,18.116 C88.084,19.7480082 87.7120037,21.1819938 86.968,22.418 C86.2239963,23.6540062 85.1680068,24.6079966 83.8,25.28 C82.4319932,25.9520034 80.8600089,26.288 79.084,26.288 Z M99.028,7.316 C100.540008,7.316 101.877994,7.57999736 103.042,8.108 C104.206006,8.63600264 105.099997,9.36199538 105.724,10.286 C106.348003,11.2100046 106.66,12.2599941 106.66,13.436 L106.66,25.424 C106.66,25.8080019 106.468002,26 106.084,26 L103.06,26 C102.675998,26 102.484,25.8080019 102.484,25.424 L102.484,24.524 C102.484,24.4279995 102.46,24.3740001 102.412,24.362 C102.364,24.3499999 102.304,24.3679998 102.232,24.416 C100.935994,25.6640062 99.2080108,26.288 97.048,26.288 C95.2719911,26.288 93.8140057,25.8320046 92.674,24.92 C91.5339943,24.0079954 90.964,22.652009 90.964,20.852 C90.964,18.9799906 91.6179935,17.5220052 92.926,16.478 C94.2340065,15.4339948 96.0759881,14.912 98.452,14.912 L102.268,14.912 C102.412001,14.912 102.484,14.8400007 102.484,14.696 L102.484,13.868 C102.484,12.9319953 102.202003,12.2060026 101.638,11.69 C101.073997,11.1739974 100.240006,10.916 99.136,10.916 C98.2959958,10.916 97.6000028,11.0659985 97.048,11.366 C96.4959972,11.6660015 96.124001,12.0799974 95.932,12.608 C95.8359995,12.9440017 95.6200017,13.1000001 95.284,13.076 L92.044,12.68 C91.851999,12.6559999 91.7080005,12.6020004 91.612,12.518 C91.5159995,12.4339996 91.4799999,12.3320006 91.504,12.212 C91.7200011,10.7719928 92.5179931,9.59600456 93.898,8.684 C95.2780069,7.77199544 96.9879898,7.316 99.028,7.316 Z M98.2,22.976 C99.3760059,22.976 100.383996,22.6640031 101.224,22.04 C102.064004,21.4159969 102.484,20.6240048 102.484,19.664 L102.484,18.008 C102.484,17.8639993 102.412001,17.792 102.268,17.792 L99.28,17.792 C98.0079936,17.792 97.0000037,18.0319976 96.256,18.512 C95.5119963,18.9920024 95.14,19.6759956 95.14,20.564 C95.14,21.3320038 95.4279971,21.9259979 96.004,22.346 C96.5800029,22.7660021 97.3119956,22.976 98.2,22.976 Z M119.368,7.388 C120.064003,7.388 120.699997,7.51999868 121.276,7.784 C121.564001,7.92800072 121.672,8.16799832 121.6,8.504 L121.024,11.492 C121,11.684001 120.934001,11.8039998 120.826,11.852 C120.717999,11.9000002 120.556001,11.9000002 120.34,11.852 C120.051999,11.7559995 119.668002,11.708 119.188,11.708 C118.899999,11.708 118.672001,11.7199999 118.504,11.744 C117.495995,11.7920002 116.656003,12.1459967 115.984,12.806 C115.311997,13.4660033 114.976,14.3239947 114.976,15.38 L114.976,25.424 C114.976,25.8080019 114.784002,26 114.4,26 L111.376,26 C110.991998,26 110.8,25.8080019 110.8,25.424 L110.8,8.18 C110.8,7.79599808 110.991998,7.604 111.376,7.604 L114.4,7.604 C114.784002,7.604 114.976,7.79599808 114.976,8.18 L114.976,9.584 C114.976,9.68000048 115,9.73999988 115.048,9.764 C115.096,9.78800012 115.144,9.75200048 115.192,9.656 C116.200005,8.14399244 117.591991,7.388 119.368,7.388 Z M134.416,10.412 C134.416,10.7960019 134.224002,10.988 133.84,10.988 L130.348,10.988 C130.203999,10.988 130.132,11.0599993 130.132,11.204 L130.132,19.7 C130.132,20.6360047 130.329998,21.307998 130.726,21.716 C131.122002,22.124002 131.751996,22.328 132.616,22.328 L133.552,22.328 C133.936002,22.328 134.128,22.5199981 134.128,22.904 L134.128,25.316 C134.128,25.7000019 133.936002,25.9039999 133.552,25.928 L131.824,25.964 C129.927991,25.964 128.512005,25.6340033 127.576,24.974 C126.639995,24.3139967 126.16,23.084009 126.136,21.284 L126.136,11.204 C126.136,11.0599993 126.064001,10.988 125.92,10.988 L124.048,10.988 C123.663998,10.988 123.472,10.7960019 123.472,10.412 L123.472,8.18 C123.472,7.79599808 123.663998,7.604 124.048,7.604 L125.92,7.604 C126.064001,7.604 126.136,7.53200072 126.136,7.388 L126.136,3.356 C126.136,2.97199808 126.327998,2.78 126.712,2.78 L129.556,2.78 C129.940002,2.78 130.132,2.97199808 130.132,3.356 L130.132,7.388 C130.132,7.53200072 130.203999,7.604 130.348,7.604 L133.84,7.604 C134.224002,7.604 134.416,7.79599808 134.416,8.18 L134.416,10.412 Z M146.008,22.76 C146.896004,22.7359999 147.669997,22.5500017 148.33,22.202 C148.990003,21.8539983 149.523998,21.380003 149.932,20.78 C150.052001,20.587999 150.207999,20.492 150.4,20.492 C150.520001,20.492 150.628,20.5279996 150.724,20.6 L152.452,21.968 C152.620001,22.1360008 152.704,22.2919993 152.704,22.436 C152.704,22.5320005 152.668,22.6399994 152.596,22.76 C151.899997,23.8640055 150.952006,24.7279969 149.752,25.352 C148.551994,25.9760031 147.172008,26.288 145.612,26.288 C143.715991,26.288 142.126006,25.8380045 140.842,24.938 C139.557994,24.0379955 138.628003,22.784008 138.052,21.176 C137.571998,19.8559934 137.332,18.3680083 137.332,16.712 C137.332,15.0559917 137.463999,13.7840044 137.728,12.896 C138.184002,11.1919915 139.083993,9.83600504 140.428,8.828 C141.772007,7.81999496 143.40399,7.316 145.324,7.316 C149.812022,7.316 152.439996,9.7759754 153.208,14.696 C153.328001,15.488004 153.412,16.4719941 153.46,17.648 C153.46,18.0320019 153.268002,18.224 152.884,18.224 L141.724,18.224 C141.579999,18.224 141.508,18.2959993 141.508,18.44 C141.508,19.0880032 141.579999,19.615998 141.724,20.024 C141.988001,20.8880043 142.491996,21.5599976 143.236,22.04 C143.980004,22.5200024 144.903994,22.76 146.008,22.76 Z M145.288,10.916 C144.375995,10.916 143.626003,11.1379978 143.038,11.582 C142.449997,12.0260022 142.048001,12.643996 141.832,13.436 C141.663999,13.9160024 141.568,14.4199974 141.544,14.948 C141.52,15.0920007 141.579999,15.164 141.724,15.164 L148.96,15.164 C149.104001,15.164 149.176,15.0920007 149.176,14.948 C149.08,14.2279964 149.008,13.7960007 148.96,13.652 C148.743999,12.8119958 148.318003,12.1460025 147.682,11.654 C147.045997,11.1619975 146.248005,10.916 145.288,10.916 Z M157.888,26 C157.503998,26 157.312,25.8080019 157.312,25.424 L157.312,1.376 C157.312,0.99199808 157.503998,0.8 157.888,0.8 L160.912,0.8 C161.296002,0.8 161.488,0.99199808 161.488,1.376 L161.488,25.424 C161.488,25.8080019 161.296002,26 160.912,26 L157.888,26 Z M174.268,22.76 C175.156004,22.7359999 175.929997,22.5500017 176.59,22.202 C177.250003,21.8539983 177.783998,21.380003 178.192,20.78 C178.312001,20.587999 178.467999,20.492 178.66,20.492 C178.780001,20.492 178.888,20.5279996 178.984,20.6 L180.712,21.968 C180.880001,22.1360008 180.964,22.2919993 180.964,22.436 C180.964,22.5320005 180.928,22.6399994 180.856,22.76 C180.159997,23.8640055 179.212006,24.7279969 178.012,25.352 C176.811994,25.9760031 175.432008,26.288 173.872,26.288 C171.975991,26.288 170.386006,25.8380045 169.102,24.938 C167.817994,24.0379955 166.888003,22.784008 166.312,21.176 C165.831998,19.8559934 165.592,18.3680083 165.592,16.712 C165.592,15.0559917 165.723999,13.7840044 165.988,12.896 C166.444002,11.1919915 167.343993,9.83600504 168.688,8.828 C170.032007,7.81999496 171.66399,7.316 173.584,7.316 C178.072022,7.316 180.699996,9.7759754 181.468,14.696 C181.588001,15.488004 181.672,16.4719941 181.72,17.648 C181.72,18.0320019 181.528002,18.224 181.144,18.224 L169.984,18.224 C169.839999,18.224 169.768,18.2959993 169.768,18.44 C169.768,19.0880032 169.839999,19.615998 169.984,20.024 C170.248001,20.8880043 170.751996,21.5599976 171.496,22.04 C172.240004,22.5200024 173.163994,22.76 174.268,22.76 Z M173.548,10.916 C172.635995,10.916 171.886003,11.1379978 171.298,11.582 C170.709997,12.0260022 170.308001,12.643996 170.092,13.436 C169.923999,13.9160024 169.828,14.4199974 169.804,14.948 C169.78,15.0920007 169.839999,15.164 169.984,15.164 L177.22,15.164 C177.364001,15.164 177.436,15.0920007 177.436,14.948 C177.34,14.2279964 177.268,13.7960007 177.22,13.652 C177.003999,12.8119958 176.578003,12.1460025 175.942,11.654 C175.305997,11.1619975 174.508005,10.916 173.548,10.916 Z M194.104,7.388 C194.800003,7.388 195.435997,7.51999868 196.012,7.784 C196.300001,7.92800072 196.408,8.16799832 196.336,8.504 L195.76,11.492 C195.736,11.684001 195.670001,11.8039998 195.562,11.852 C195.453999,11.9000002 195.292001,11.9000002 195.076,11.852 C194.787999,11.7559995 194.404002,11.708 193.924,11.708 C193.635999,11.708 193.408001,11.7199999 193.24,11.744 C192.231995,11.7920002 191.392003,12.1459967 190.72,12.806 C190.047997,13.4660033 189.712,14.3239947 189.712,15.38 L189.712,25.424 C189.712,25.8080019 189.520002,26 189.136,26 L186.112,26 C185.727998,26 185.536,25.8080019 185.536,25.424 L185.536,8.18 C185.536,7.79599808 185.727998,7.604 186.112,7.604 L189.136,7.604 C189.520002,7.604 189.712,7.79599808 189.712,8.18 L189.712,9.584 C189.712,9.68000048 189.736,9.73999988 189.784,9.764 C189.832,9.78800012 189.88,9.75200048 189.928,9.656 C190.936005,8.14399244 192.327991,7.388 194.104,7.388 Z M205.912,7.316 C207.424008,7.316 208.761994,7.57999736 209.926,8.108 C211.090006,8.63600264 211.983997,9.36199538 212.608,10.286 C213.232003,11.2100046 213.544,12.2599941 213.544,13.436 L213.544,25.424 C213.544,25.8080019 213.352002,26 212.968,26 L209.944,26 C209.559998,26 209.368,25.8080019 209.368,25.424 L209.368,24.524 C209.368,24.4279995 209.344,24.3740001 209.296,24.362 C209.248,24.3499999 209.188,24.3679998 209.116,24.416 C207.819994,25.6640062 206.092011,26.288 203.932,26.288 C202.155991,26.288 200.698006,25.8320046 199.558,24.92 C198.417994,24.0079954 197.848,22.652009 197.848,20.852 C197.848,18.9799906 198.501993,17.5220052 199.81,16.478 C201.118007,15.4339948 202.959988,14.912 205.336,14.912 L209.152,14.912 C209.296001,14.912 209.368,14.8400007 209.368,14.696 L209.368,13.868 C209.368,12.9319953 209.086003,12.2060026 208.522,11.69 C207.957997,11.1739974 207.124006,10.916 206.02,10.916 C205.179996,10.916 204.484003,11.0659985 203.932,11.366 C203.379997,11.6660015 203.008001,12.0799974 202.816,12.608 C202.72,12.9440017 202.504002,13.1000001 202.168,13.076 L198.928,12.68 C198.735999,12.6559999 198.592,12.6020004 198.496,12.518 C198.4,12.4339996 198.364,12.3320006 198.388,12.212 C198.604001,10.7719928 199.401993,9.59600456 200.782,8.684 C202.162007,7.77199544 203.87199,7.316 205.912,7.316 Z M205.084,22.976 C206.260006,22.976 207.267996,22.6640031 208.108,22.04 C208.948004,21.4159969 209.368,20.6240048 209.368,19.664 L209.368,18.008 C209.368,17.8639993 209.296001,17.792 209.152,17.792 L206.164,17.792 C204.891994,17.792 203.884004,18.0319976 203.14,18.512 C202.395996,18.9920024 202.024,19.6759956 202.024,20.564 C202.024,21.3320038 202.311997,21.9259979 202.888,22.346 C203.464003,22.7660021 204.195996,22.976 205.084,22.976 Z M236.044,1.376 C236.044,0.99199808 236.235998,0.8 236.62,0.8 L239.644,0.8 C240.028002,0.8 240.22,0.99199808 240.22,1.376 L240.22,25.424 C240.22,25.8080019 240.028002,26 239.644,26 L236.62,26 C236.235998,26 236.044,25.8080019 236.044,25.424 L236.044,24.488 C236.044,24.3919995 236.014,24.3320001 235.954,24.308 C235.894,24.2839999 235.84,24.3199995 235.792,24.416 C234.759995,25.6640062 233.392009,26.288 231.688,26.288 C230.007992,26.288 228.568006,25.8380045 227.368,24.938 C226.167994,24.0379955 225.304003,22.8080078 224.776,21.248 C224.343998,19.9039933 224.128,18.4040083 224.128,16.748 C224.128,15.0439915 224.331998,13.5800061 224.74,12.356 C225.268003,10.7719921 226.119994,9.53600444 227.296,8.648 C228.472006,7.75999556 229.935991,7.316 231.688,7.316 C233.368008,7.316 234.735995,7.90399412 235.792,9.08 C235.84,9.15200036 235.894,9.18200006 235.954,9.17 C236.014,9.15799994 236.044,9.10400048 236.044,9.008 L236.044,1.376 Z M235.144,20.96 C235.696003,20.0239953 235.972,18.6320092 235.972,16.784 C235.972,14.9119906 235.672003,13.4840049 235.072,12.5 C234.423997,11.4439947 233.524006,10.916 232.372,10.916 C231.123994,10.916 230.164003,11.419995 229.492,12.428 C228.795997,13.4840053 228.448,14.9479906 228.448,16.82 C228.448,18.5480086 228.735997,19.915995 229.312,20.924 C229.936003,22.0760058 230.943993,22.652 232.336,22.652 C233.536006,22.652 234.471997,22.0880056 235.144,20.96 Z M252.964,22.76 C253.852004,22.7359999 254.625997,22.5500017 255.286,22.202 C255.946003,21.8539983 256.479998,21.380003 256.888,20.78 C257.008001,20.587999 257.163999,20.492 257.356,20.492 C257.476001,20.492 257.584,20.5279996 257.68,20.6 L259.408,21.968 C259.576001,22.1360008 259.66,22.2919993 259.66,22.436 C259.66,22.5320005 259.624,22.6399994 259.552,22.76 C258.855997,23.8640055 257.908006,24.7279969 256.708,25.352 C255.507994,25.9760031 254.128008,26.288 252.568,26.288 C250.671991,26.288 249.082006,25.8380045 247.798,24.938 C246.513994,24.0379955 245.584003,22.784008 245.008,21.176 C244.527998,19.8559934 244.288,18.3680083 244.288,16.712 C244.288,15.0559917 244.419999,13.7840044 244.684,12.896 C245.140002,11.1919915 246.039993,9.83600504 247.384,8.828 C248.728007,7.81999496 250.35999,7.316 252.28,7.316 C256.768022,7.316 259.395996,9.7759754 260.164,14.696 C260.284001,15.488004 260.368,16.4719941 260.416,17.648 C260.416,18.0320019 260.224002,18.224 259.84,18.224 L248.68,18.224 C248.535999,18.224 248.464,18.2959993 248.464,18.44 C248.464,19.0880032 248.535999,19.615998 248.68,20.024 C248.944001,20.8880043 249.447996,21.5599976 250.192,22.04 C250.936004,22.5200024 251.859994,22.76 252.964,22.76 Z M252.244,10.916 C251.331995,10.916 250.582003,11.1379978 249.994,11.582 C249.405997,12.0260022 249.004001,12.643996 248.788,13.436 C248.619999,13.9160024 248.524,14.4199974 248.5,14.948 C248.476,15.0920007 248.535999,15.164 248.68,15.164 L255.916,15.164 C256.060001,15.164 256.132,15.0920007 256.132,14.948 C256.036,14.2279964 255.964,13.7960007 255.916,13.652 C255.699999,12.8119958 255.274003,12.1460025 254.638,11.654 C254.001997,11.1619975 253.204005,10.916 252.244,10.916 Z M68.572,69 C68.1879981,69 67.996,68.8080019 67.996,68.424 L67.996,44.376 C67.996,43.9919981 68.1879981,43.8 68.572,43.8 L71.596,43.8 C71.9800019,43.8 72.172,43.9919981 72.172,44.376 L72.172,68.424 C72.172,68.8080019 71.9800019,69 71.596,69 L68.572,69 Z M85.852,50.316 C87.8200098,50.316 89.3859942,50.8919942 90.55,52.044 C91.7140058,53.1960058 92.296,54.76799 92.296,56.76 L92.296,68.424 C92.296,68.8080019 92.1040019,69 91.72,69 L88.696,69 C88.3119981,69 88.12,68.8080019 88.12,68.424 L88.12,57.624 C88.12,56.5199945 87.8020032,55.6260034 87.166,54.942 C86.5299968,54.2579966 85.6960052,53.916 84.664,53.916 C83.6319948,53.916 82.7980032,54.2519966 82.162,54.924 C81.5259968,55.5960034 81.208,56.4839945 81.208,57.588 L81.208,68.424 C81.208,68.8080019 81.0160019,69 80.632,69 L77.608,69 C77.2239981,69 77.032,68.8080019 77.032,68.424 L77.032,51.18 C77.032,50.7959981 77.2239981,50.604 77.608,50.604 L80.632,50.604 C81.0160019,50.604 81.208,50.7959981 81.208,51.18 L81.208,52.152 C81.208,52.2480005 81.2319998,52.3079999 81.28,52.332 C81.3280002,52.3560001 81.3759998,52.3320004 81.424,52.26 C82.432005,50.9639935 83.9079903,50.316 85.852,50.316 Z M105.436,50.316 C107.40401,50.316 108.969994,50.8919942 110.134,52.044 C111.298006,53.1960058 111.88,54.76799 111.88,56.76 L111.88,68.424 C111.88,68.8080019 111.688002,69 111.304,69 L108.28,69 C107.895998,69 107.704,68.8080019 107.704,68.424 L107.704,57.624 C107.704,56.5199945 107.386003,55.6260034 106.75,54.942 C106.113997,54.2579966 105.280005,53.916 104.248,53.916 C103.215995,53.916 102.382003,54.2519966 101.746,54.924 C101.109997,55.5960034 100.792,56.4839945 100.792,57.588 L100.792,68.424 C100.792,68.8080019 100.600002,69 100.216,69 L97.192,69 C96.8079981,69 96.616,68.8080019 96.616,68.424 L96.616,51.18 C96.616,50.7959981 96.8079981,50.604 97.192,50.604 L100.216,50.604 C100.600002,50.604 100.792,50.7959981 100.792,51.18 L100.792,52.152 C100.792,52.2480005 100.816,52.3079999 100.864,52.332 C100.912,52.3560001 100.96,52.3320004 101.008,52.26 C102.016005,50.9639935 103.49199,50.316 105.436,50.316 Z M124.048,69.288 C122.151991,69.288 120.520007,68.8080048 119.152,67.848 C117.783993,66.8879952 116.836003,65.5560085 116.308,63.852 C115.899998,62.6759941 115.696,61.3080078 115.696,59.748 C115.696,58.2119923 115.887998,56.844006 116.272,55.644 C116.824003,53.9639916 117.783993,52.6560047 119.152,51.72 C120.520007,50.7839953 122.16399,50.316 124.084,50.316 C125.908009,50.316 127.485993,50.7839953 128.818,51.72 C130.150007,52.6560047 131.091997,53.9519917 131.644,55.608 C132.076002,56.7600058 132.292,58.1279921 132.292,59.712 C132.292,61.2240076 132.088002,62.5919939 131.68,63.816 C131.127997,65.5200085 130.180007,66.8579951 128.836,67.83 C127.491993,68.8020049 125.896009,69.288 124.048,69.288 Z M124.048,65.688 C124.936004,65.688 125.697997,65.4360025 126.334,64.932 C126.970003,64.4279975 127.419999,63.7200046 127.684,62.808 C127.948001,62.0399962 128.08,61.0320062 128.08,59.784 C128.08,58.6079941 127.960001,57.6000042 127.72,56.76 C127.455999,55.8479954 126.994003,55.1460025 126.334,54.654 C125.673997,54.1619975 124.888005,53.916 123.976,53.916 C123.063995,53.916 122.284003,54.1619975 121.636,54.654 C120.987997,55.1460025 120.532001,55.8479954 120.268,56.76 C120.027999,57.6000042 119.908,58.6079941 119.908,59.784 C119.908,60.9600059 120.027999,61.9679958 120.268,62.808 C120.532001,63.7200046 120.993997,64.4279975 121.654,64.932 C122.314003,65.4360025 123.111995,65.688 124.048,65.688 Z M140.464,69 C140.127998,69 139.912,68.8440016 139.816,68.532 L134.128,51.252 C134.104,51.1799996 134.092,51.0960005 134.092,51 C134.092,50.7359987 134.259998,50.604 134.596,50.604 L137.98,50.604 C138.316002,50.604 138.532,50.7599984 138.628,51.072 L142.048,63.024 C142.096,63.1200005 142.15,63.168 142.21,63.168 C142.27,63.168 142.312,63.1200005 142.336,63.024 L145.756,51.108 C145.852,50.7719983 146.067998,50.604 146.404,50.604 L149.788,50.64 C149.980001,50.64 150.124,50.6999994 150.22,50.82 C150.316,50.9400006 150.328,51.095999 150.256,51.288 L144.604,68.532 C144.508,68.8440016 144.292002,69 143.956,69 L140.464,69 Z M159.724,50.316 C161.236008,50.316 162.573994,50.5799974 163.738,51.108 C164.902006,51.6360026 165.795997,52.3619954 166.42,53.286 C167.044003,54.2100046 167.356,55.2599941 167.356,56.436 L167.356,68.424 C167.356,68.8080019 167.164002,69 166.78,69 L163.756,69 C163.371998,69 163.18,68.8080019 163.18,68.424 L163.18,67.524 C163.18,67.4279995 163.156,67.3740001 163.108,67.362 C163.06,67.3499999 163,67.3679998 162.928,67.416 C161.631994,68.6640062 159.904011,69.288 157.744,69.288 C155.967991,69.288 154.510006,68.8320046 153.37,67.92 C152.229994,67.0079954 151.66,65.652009 151.66,63.852 C151.66,61.9799906 152.313993,60.5220052 153.622,59.478 C154.930007,58.4339948 156.771988,57.912 159.148,57.912 L162.964,57.912 C163.108001,57.912 163.18,57.8400007 163.18,57.696 L163.18,56.868 C163.18,55.9319953 162.898003,55.2060026 162.334,54.69 C161.769997,54.1739974 160.936006,53.916 159.832,53.916 C158.991996,53.916 158.296003,54.0659985 157.744,54.366 C157.191997,54.6660015 156.820001,55.0799974 156.628,55.608 C156.532,55.9440017 156.316002,56.1000001 155.98,56.076 L152.74,55.68 C152.547999,55.6559999 152.404,55.6020004 152.308,55.518 C152.212,55.4339996 152.176,55.3320006 152.2,55.212 C152.416001,53.7719928 153.213993,52.5960046 154.594,51.684 C155.974007,50.7719954 157.68399,50.316 159.724,50.316 Z M158.896,65.976 C160.072006,65.976 161.079996,65.6640031 161.92,65.04 C162.760004,64.4159969 163.18,63.6240048 163.18,62.664 L163.18,61.008 C163.18,60.8639993 163.108001,60.792 162.964,60.792 L159.976,60.792 C158.703994,60.792 157.696004,61.0319976 156.952,61.512 C156.207996,61.9920024 155.836,62.6759956 155.836,63.564 C155.836,64.3320038 156.123997,64.9259979 156.7,65.346 C157.276003,65.7660021 158.007996,65.976 158.896,65.976 Z M179.164,69.288 C177.315991,69.288 175.720007,68.8140047 174.376,67.866 C173.031993,66.9179953 172.096003,65.640008 171.568,64.032 C171.183998,62.9519946 170.992,61.512009 170.992,59.712 C170.992,57.9839914 171.183998,56.5680055 171.568,55.464 C172.072003,53.8799921 173.001993,52.6260046 174.358,51.702 C175.714007,50.7779954 177.315991,50.316 179.164,50.316 C181.036009,50.316 182.667993,50.7839953 184.06,51.72 C185.452007,52.6560047 186.375998,53.8319929 186.832,55.248 C186.904,55.4640011 186.976,55.7999977 187.048,56.256 L187.048,56.4 C187.048,56.6640013 186.892002,56.8319996 186.58,56.904 L183.592,57.372 L183.448,57.372 C183.183999,57.372 183.016,57.2280014 182.944,56.94 L182.836,56.472 C182.667999,55.7519964 182.248003,55.1460025 181.576,54.654 C180.903997,54.1619975 180.100005,53.916 179.164,53.916 C178.251995,53.916 177.478003,54.1499977 176.842,54.618 C176.205997,55.0860023 175.780001,55.7279959 175.564,56.544 C175.323999,57.3120038 175.204,58.3799932 175.204,59.748 C175.204,61.0680066 175.311999,62.1359959 175.528,62.952 C175.768001,63.7920042 176.199997,64.4579975 176.824,64.95 C177.448003,65.4420025 178.227995,65.688 179.164,65.688 C180.076005,65.688 180.861997,65.4540023 181.522,64.986 C182.182003,64.5179977 182.607999,63.9000038 182.8,63.132 L182.836,62.952 C182.86,62.8319994 182.937999,62.7120006 183.07,62.592 C183.202001,62.4719994 183.351999,62.4239999 183.52,62.448 L186.508,62.916 C186.820002,62.9880004 186.976,63.1559987 186.976,63.42 C186.976,63.5640007 186.928,63.8519978 186.832,64.284 C186.375998,65.8200077 185.452007,67.0379955 184.06,67.938 C182.667993,68.8380045 181.036009,69.288 179.164,69.288 Z M192.988,48.3 C192.195996,48.3 191.548003,48.0540025 191.044,47.562 C190.539997,47.0699975 190.288,46.4400038 190.288,45.672 C190.288,44.9039962 190.539997,44.2800024 191.044,43.8 C191.548003,43.3199976 192.195996,43.08 192.988,43.08 C193.780004,43.08 194.421998,43.3199976 194.914,43.8 C195.406002,44.2800024 195.652,44.9039962 195.652,45.672 C195.652,46.4400038 195.406002,47.0699975 194.914,47.562 C194.421998,48.0540025 193.780004,48.3 192.988,48.3 Z M191.476,69 C191.091998,69 190.9,68.8080019 190.9,68.424 L190.9,51.18 C190.9,50.7959981 191.091998,50.604 191.476,50.604 L194.5,50.604 C194.884002,50.604 195.076,50.7959981 195.076,51.18 L195.076,68.424 C195.076,68.8080019 194.884002,69 194.5,69 L191.476,69 Z M207.64,69.288 C205.743991,69.288 204.112007,68.8080048 202.744,67.848 C201.375993,66.8879952 200.428003,65.5560085 199.9,63.852 C199.491998,62.6759941 199.288,61.3080078 199.288,59.748 C199.288,58.2119923 199.479998,56.844006 199.864,55.644 C200.416003,53.9639916 201.375993,52.6560047 202.744,51.72 C204.112007,50.7839953 205.75599,50.316 207.676,50.316 C209.500009,50.316 211.077993,50.7839953 212.41,51.72 C213.742007,52.6560047 214.683997,53.9519917 215.236,55.608 C215.668002,56.7600058 215.884,58.1279921 215.884,59.712 C215.884,61.2240076 215.680002,62.5919939 215.272,63.816 C214.719997,65.5200085 213.772007,66.8579951 212.428,67.83 C211.083993,68.8020049 209.488009,69.288 207.64,69.288 Z M207.64,65.688 C208.528004,65.688 209.289997,65.4360025 209.926,64.932 C210.562003,64.4279975 211.011999,63.7200046 211.276,62.808 C211.540001,62.0399962 211.672,61.0320062 211.672,59.784 C211.672,58.6079941 211.552001,57.6000042 211.312,56.76 C211.047999,55.8479954 210.586003,55.1460025 209.926,54.654 C209.265997,54.1619975 208.480005,53.916 207.568,53.916 C206.655995,53.916 205.876003,54.1619975 205.228,54.654 C204.579997,55.1460025 204.124001,55.8479954 203.86,56.76 C203.619999,57.6000042 203.5,58.6079941 203.5,59.784 C203.5,60.9600059 203.619999,61.9679958 203.86,62.808 C204.124001,63.7200046 204.585997,64.4279975 205.246,64.932 C205.906003,65.4360025 206.703995,65.688 207.64,65.688 Z M206.092,48.012 C205.755998,48.012 205.588,47.8800013 205.588,47.616 C205.588,47.4959994 205.612,47.4000004 205.66,47.328 L207.532,43.908 C207.676001,43.6439987 207.903998,43.512 208.216,43.512 L211.06,43.512 C211.372002,43.512 211.528,43.6199989 211.528,43.836 C211.528,43.9320005 211.492,44.0519993 211.42,44.196 L209.116,47.652 C208.971999,47.8920012 208.744002,48.012 208.432,48.012 L206.092,48.012 Z M228.664,50.316 C230.63201,50.316 232.197994,50.8919942 233.362,52.044 C234.526006,53.1960058 235.108,54.76799 235.108,56.76 L235.108,68.424 C235.108,68.8080019 234.916002,69 234.532,69 L231.508,69 C231.123998,69 230.932,68.8080019 230.932,68.424 L230.932,57.624 C230.932,56.5199945 230.614003,55.6260034 229.978,54.942 C229.341997,54.2579966 228.508005,53.916 227.476,53.916 C226.443995,53.916 225.610003,54.2519966 224.974,54.924 C224.337997,55.5960034 224.02,56.4839945 224.02,57.588 L224.02,68.424 C224.02,68.8080019 223.828002,69 223.444,69 L220.42,69 C220.035998,69 219.844,68.8080019 219.844,68.424 L219.844,51.18 C219.844,50.7959981 220.035998,50.604 220.42,50.604 L223.444,50.604 C223.828002,50.604 224.02,50.7959981 224.02,51.18 L224.02,52.152 C224.02,52.2480005 224.044,52.3079999 224.092,52.332 C224.14,52.3560001 224.188,52.3320004 224.236,52.26 C225.244005,50.9639935 226.71999,50.316 228.664,50.316 Z M246.268,76.164 C246.099999,76.164 246.016,75.9720019 246.016,75.588 L246.016,73.284 C246.016,72.8999981 246.099999,72.708 246.268,72.708 L246.484,72.708 C247.468005,72.708 248.235997,72.6180009 248.788,72.438 C249.340003,72.2579991 249.789998,71.9160025 250.138,71.412 C250.486002,70.9079975 250.803999,70.152005 251.092,69.144 C251.14,69.0239994 251.14,68.9280004 251.092,68.856 L245.224,51.252 C245.2,51.1799996 245.188,51.0960005 245.188,51 C245.188,50.7359987 245.355998,50.604 245.692,50.604 L248.932,50.604 C249.268002,50.604 249.484,50.7599984 249.58,51.072 L253.108,62.988 C253.156,63.0840005 253.21,63.132 253.27,63.132 C253.33,63.132 253.372,63.0840005 253.396,62.988 L256.816,51.072 C256.912,50.7599984 257.127998,50.604 257.464,50.604 L260.704,50.604 C260.920001,50.604 261.07,50.6579995 261.154,50.766 C261.238,50.8740005 261.244,51.0359989 261.172,51.252 L254.872,70.008 C254.271997,71.7120085 253.684003,72.9839958 253.108,73.824 C252.531997,74.6640042 251.746005,75.2639982 250.75,75.624 C249.753995,75.9840018 248.344009,76.164 246.52,76.164 L246.268,76.164 Z M17.992,89.824 C17.992,90.2080019 17.8000019,90.4 17.416,90.4 L5.32,90.4 C5.17599928,90.4 5.104,90.4719993 5.104,90.616 L5.104,97.276 C5.104,97.4200007 5.17599928,97.492 5.32,97.492 L13.384,97.492 C13.7680019,97.492 13.96,97.6839981 13.96,98.068 L13.96,100.516 C13.96,100.900002 13.7680019,101.092 13.384,101.092 L5.32,101.092 C5.17599928,101.092 5.104,101.163999 5.104,101.308 L5.104,108.184 C5.104,108.328001 5.17599928,108.4 5.32,108.4 L17.416,108.4 C17.8000019,108.4 17.992,108.591998 17.992,108.976 L17.992,111.424 C17.992,111.808002 17.8000019,112 17.416,112 L1.504,112 C1.11999808,112 0.928,111.808002 0.928,111.424 L0.928,87.376 C0.928,86.9919981 1.11999808,86.8 1.504,86.8 L17.416,86.8 C17.8000019,86.8 17.992,86.9919981 17.992,87.376 L17.992,89.824 Z M41.536,93.316 C43.3840092,93.316 44.8299948,93.8739944 45.874,94.99 C46.9180052,96.1060056 47.44,97.65999 47.44,99.652 L47.44,111.424 C47.44,111.808002 47.2480019,112 46.864,112 L43.876,112 C43.4919981,112 43.3,111.808002 43.3,111.424 L43.3,100.516 C43.3,99.4119945 43.0060029,98.5360032 42.418,97.888 C41.8299971,97.2399968 41.0440049,96.916 40.06,96.916 C39.0759951,96.916 38.2720031,97.2399968 37.648,97.888 C37.0239969,98.5360032 36.712,99.3999946 36.712,100.48 L36.712,111.424 C36.712,111.808002 36.5200019,112 36.136,112 L33.148,112 C32.7639981,112 32.572,111.808002 32.572,111.424 L32.572,100.516 C32.572,99.4119945 32.272003,98.5360032 31.672,97.888 C31.071997,97.2399968 30.2800049,96.916 29.296,96.916 C28.3839954,96.916 27.6340029,97.1799974 27.046,97.708 C26.4579971,98.2360026 26.1160005,98.9559954 26.02,99.868 L26.02,111.424 C26.02,111.808002 25.8280019,112 25.444,112 L22.42,112 C22.0359981,112 21.844,111.808002 21.844,111.424 L21.844,94.18 C21.844,93.7959981 22.0359981,93.604 22.42,93.604 L25.444,93.604 C25.8280019,93.604 26.02,93.7959981 26.02,94.18 L26.02,95.152 C26.02,95.2480005 26.0499997,95.3079999 26.11,95.332 C26.1700003,95.3560001 26.2239998,95.3200005 26.272,95.224 C27.3040052,93.9519936 28.81599,93.316 30.808,93.316 C31.9840059,93.316 33.0099956,93.5499977 33.886,94.018 C34.7620044,94.4860023 35.4399976,95.1759954 35.92,96.088 C35.9680002,96.1600004 36.0219997,96.196 36.082,96.196 C36.1420003,96.196 36.1839999,96.1480005 36.208,96.052 C36.7600028,95.1399954 37.5039953,94.4560023 38.44,94 C39.3760047,93.5439977 40.4079944,93.316 41.536,93.316 Z M67.312,98.356 C67.7440022,99.6760066 67.96,101.175992 67.96,102.856 C67.96,104.560009 67.756002,106.023994 67.348,107.248 C66.8199974,108.832008 65.9680059,110.067996 64.792,110.956 C63.6159941,111.844004 62.1520088,112.288 60.4,112.288 C58.7199916,112.288 57.3520053,111.700006 56.296,110.524 C56.2479998,110.452 56.1940003,110.422 56.134,110.434 C56.0739997,110.446 56.044,110.5 56.044,110.596 L56.044,118.228 C56.044,118.612002 55.8520019,118.804 55.468,118.804 L52.444,118.804 C52.0599981,118.804 51.868,118.612002 51.868,118.228 L51.868,94.18 C51.868,93.7959981 52.0599981,93.604 52.444,93.604 L55.468,93.604 C55.8520019,93.604 56.044,93.7959981 56.044,94.18 L56.044,95.116 C56.044,95.2120005 56.0739997,95.2719999 56.134,95.296 C56.1940003,95.3200001 56.2479998,95.2840005 56.296,95.188 C57.3280052,93.9399938 58.6959915,93.316 60.4,93.316 C62.0800084,93.316 63.519994,93.7659955 64.72,94.666 C65.920006,95.5660045 66.7839974,96.7959922 67.312,98.356 Z M62.596,107.176 C63.2920035,106.119995 63.64,104.656009 63.64,102.784 C63.64,101.055991 63.3520029,99.688005 62.776,98.68 C62.1519969,97.5279942 61.144007,96.952 59.752,96.952 C58.551994,96.952 57.6160034,97.5159944 56.944,98.644 C56.3919972,99.5800047 56.116,100.971991 56.116,102.82 C56.116,104.692009 56.415997,106.119995 57.016,107.104 C57.6640032,108.160005 58.5639942,108.688 59.716,108.688 C60.9640062,108.688 61.9239966,108.184005 62.596,107.176 Z M80.236,93.388 C80.9320035,93.388 81.5679971,93.5199987 82.144,93.784 C82.4320014,93.9280007 82.5400004,94.1679983 82.468,94.504 L81.892,97.492 C81.8679999,97.684001 81.8020005,97.8039998 81.694,97.852 C81.5859995,97.9000002 81.4240011,97.9000002 81.208,97.852 C80.9199986,97.7559995 80.5360024,97.708 80.056,97.708 C79.7679986,97.708 79.5400008,97.7199999 79.372,97.744 C78.363995,97.7920002 77.5240034,98.1459967 76.852,98.806 C76.1799966,99.4660033 75.844,100.323995 75.844,101.38 L75.844,111.424 C75.844,111.808002 75.6520019,112 75.268,112 L72.244,112 C71.8599981,112 71.668,111.808002 71.668,111.424 L71.668,94.18 C71.668,93.7959981 71.8599981,93.604 72.244,93.604 L75.268,93.604 C75.6520019,93.604 75.844,93.7959981 75.844,94.18 L75.844,95.584 C75.844,95.6800005 75.8679998,95.7399999 75.916,95.764 C75.9640002,95.7880001 76.0119998,95.7520005 76.06,95.656 C77.068005,94.1439924 78.4599911,93.388 80.236,93.388 Z M93.088,108.76 C93.9760044,108.736 94.7499967,108.550002 95.41,108.202 C96.0700033,107.853998 96.603998,107.380003 97.012,106.78 C97.1320006,106.587999 97.287999,106.492 97.48,106.492 C97.6000006,106.492 97.7079995,106.528 97.804,106.6 L99.532,107.968 C99.7000008,108.136001 99.784,108.291999 99.784,108.436 C99.784,108.532 99.7480004,108.639999 99.676,108.76 C98.9799965,109.864006 98.032006,110.727997 96.832,111.352 C95.631994,111.976003 94.2520078,112.288 92.692,112.288 C90.7959905,112.288 89.2060064,111.838005 87.922,110.938 C86.6379936,110.037995 85.7080029,108.784008 85.132,107.176 C84.6519976,105.855993 84.412,104.368008 84.412,102.712 C84.412,101.055992 84.5439987,99.7840044 84.808,98.896 C85.2640023,97.1919915 86.1639933,95.836005 87.508,94.828 C88.8520067,93.819995 90.4839904,93.316 92.404,93.316 C96.8920224,93.316 99.5199962,95.7759754 100.288,100.696 C100.408001,101.488004 100.492,102.471994 100.54,103.648 C100.54,104.032002 100.348002,104.224 99.964,104.224 L88.804,104.224 C88.6599993,104.224 88.588,104.295999 88.588,104.44 C88.588,105.088003 88.6599993,105.615998 88.804,106.024 C89.0680013,106.888004 89.5719963,107.559998 90.316,108.04 C91.0600037,108.520002 91.9839945,108.76 93.088,108.76 Z M92.368,96.916 C91.4559954,96.916 90.7060029,97.1379978 90.118,97.582 C89.5299971,98.0260022 89.1280011,98.643996 88.912,99.436 C88.7439992,99.9160024 88.6480001,100.419997 88.624,100.948 C88.5999999,101.092001 88.6599993,101.164 88.804,101.164 L96.04,101.164 C96.1840007,101.164 96.256,101.092001 96.256,100.948 C96.1599995,100.227996 96.0880002,99.7960007 96.04,99.652 C95.8239989,98.8119958 95.3980032,98.1460025 94.762,97.654 C94.1259968,97.1619975 93.3280048,96.916 92.368,96.916 Z M113.176,93.316 C115.14401,93.316 116.709994,93.8919942 117.874,95.044 C119.038006,96.1960058 119.62,97.76799 119.62,99.76 L119.62,111.424 C119.62,111.808002 119.428002,112 119.044,112 L116.02,112 C115.635998,112 115.444,111.808002 115.444,111.424 L115.444,100.624 C115.444,99.5199945 115.126003,98.6260034 114.49,97.942 C113.853997,97.2579966 113.020005,96.916 111.988,96.916 C110.955995,96.916 110.122003,97.2519966 109.486,97.924 C108.849997,98.5960034 108.532,99.4839945 108.532,100.588 L108.532,111.424 C108.532,111.808002 108.340002,112 107.956,112 L104.932,112 C104.547998,112 104.356,111.808002 104.356,111.424 L104.356,94.18 C104.356,93.7959981 104.547998,93.604 104.932,93.604 L107.956,93.604 C108.340002,93.604 108.532,93.7959981 108.532,94.18 L108.532,95.152 C108.532,95.2480005 108.556,95.3079999 108.604,95.332 C108.652,95.3560001 108.7,95.3320004 108.748,95.26 C109.756005,93.9639935 111.23199,93.316 113.176,93.316 Z M135.1,87.376 C135.1,86.9919981 135.291998,86.8 135.676,86.8 L138.7,86.8 C139.084002,86.8 139.276,86.9919981 139.276,87.376 L139.276,111.424 C139.276,111.808002 139.084002,112 138.7,112 L135.676,112 C135.291998,112 135.1,111.808002 135.1,111.424 L135.1,110.488 C135.1,110.392 135.07,110.332 135.01,110.308 C134.95,110.284 134.896,110.32 134.848,110.416 C133.815995,111.664006 132.448009,112.288 130.744,112.288 C129.063992,112.288 127.624006,111.838005 126.424,110.938 C125.223994,110.037995 124.360003,108.808008 123.832,107.248 C123.399998,105.903993 123.184,104.404008 123.184,102.748 C123.184,101.043991 123.387998,99.5800061 123.796,98.356 C124.324003,96.7719921 125.175994,95.5360044 126.352,94.648 C127.528006,93.7599956 128.991991,93.316 130.744,93.316 C132.424008,93.316 133.791995,93.9039941 134.848,95.08 C134.896,95.1520004 134.95,95.1820001 135.01,95.17 C135.07,95.1579999 135.1,95.1040005 135.1,95.008 L135.1,87.376 Z M134.2,106.96 C134.752003,106.023995 135.028,104.632009 135.028,102.784 C135.028,100.911991 134.728003,99.4840049 134.128,98.5 C133.479997,97.4439947 132.580006,96.916 131.428,96.916 C130.179994,96.916 129.220003,97.419995 128.548,98.428 C127.851997,99.4840053 127.504,100.947991 127.504,102.82 C127.504,104.548009 127.791997,105.915995 128.368,106.924 C128.992003,108.076006 129.999993,108.652 131.392,108.652 C132.592006,108.652 133.527997,108.088006 134.2,106.96 Z M146.152,91.3 C145.359996,91.3 144.712003,91.0540025 144.208,90.562 C143.703997,90.0699975 143.452,89.4400038 143.452,88.672 C143.452,87.9039962 143.703997,87.2800024 144.208,86.8 C144.712003,86.3199976 145.359996,86.08 146.152,86.08 C146.944004,86.08 147.585998,86.3199976 148.078,86.8 C148.570002,87.2800024 148.816,87.9039962 148.816,88.672 C148.816,89.4400038 148.570002,90.0699975 148.078,90.562 C147.585998,91.0540025 146.944004,91.3 146.152,91.3 Z M144.64,112 C144.255998,112 144.064,111.808002 144.064,111.424 L144.064,94.18 C144.064,93.7959981 144.255998,93.604 144.64,93.604 L147.664,93.604 C148.048002,93.604 148.24,93.7959981 148.24,94.18 L148.24,111.424 C148.24,111.808002 148.048002,112 147.664,112 L144.64,112 Z M172.648,93.316 C174.496009,93.316 175.941995,93.8739944 176.986,94.99 C178.030005,96.1060056 178.552,97.65999 178.552,99.652 L178.552,111.424 C178.552,111.808002 178.360002,112 177.976,112 L174.988,112 C174.603998,112 174.412,111.808002 174.412,111.424 L174.412,100.516 C174.412,99.4119945 174.118003,98.5360032 173.53,97.888 C172.941997,97.2399968 172.156005,96.916 171.172,96.916 C170.187995,96.916 169.384003,97.2399968 168.76,97.888 C168.135997,98.5360032 167.824,99.3999946 167.824,100.48 L167.824,111.424 C167.824,111.808002 167.632002,112 167.248,112 L164.26,112 C163.875998,112 163.684,111.808002 163.684,111.424 L163.684,100.516 C163.684,99.4119945 163.384003,98.5360032 162.784,97.888 C162.183997,97.2399968 161.392005,96.916 160.408,96.916 C159.495995,96.916 158.746003,97.1799974 158.158,97.708 C157.569997,98.2360026 157.228,98.9559954 157.132,99.868 L157.132,111.424 C157.132,111.808002 156.940002,112 156.556,112 L153.532,112 C153.147998,112 152.956,111.808002 152.956,111.424 L152.956,94.18 C152.956,93.7959981 153.147998,93.604 153.532,93.604 L156.556,93.604 C156.940002,93.604 157.132,93.7959981 157.132,94.18 L157.132,95.152 C157.132,95.2480005 157.162,95.3079999 157.222,95.332 C157.282,95.3560001 157.336,95.3200005 157.384,95.224 C158.416005,93.9519936 159.92799,93.316 161.92,93.316 C163.096006,93.316 164.121996,93.5499977 164.998,94.018 C165.874004,94.4860023 166.551998,95.1759954 167.032,96.088 C167.08,96.1600004 167.134,96.196 167.194,96.196 C167.254,96.196 167.296,96.1480005 167.32,96.052 C167.872003,95.1399954 168.615995,94.4560023 169.552,94 C170.488005,93.5439977 171.519994,93.316 172.648,93.316 Z M185.176,91.3 C184.383996,91.3 183.736003,91.0540025 183.232,90.562 C182.727997,90.0699975 182.476,89.4400038 182.476,88.672 C182.476,87.9039962 182.727997,87.2800024 183.232,86.8 C183.736003,86.3199976 184.383996,86.08 185.176,86.08 C185.968004,86.08 186.609998,86.3199976 187.102,86.8 C187.594002,87.2800024 187.84,87.9039962 187.84,88.672 C187.84,89.4400038 187.594002,90.0699975 187.102,90.562 C186.609998,91.0540025 185.968004,91.3 185.176,91.3 Z M183.664,112 C183.279998,112 183.088,111.808002 183.088,111.424 L183.088,94.18 C183.088,93.7959981 183.279998,93.604 183.664,93.604 L186.688,93.604 C187.072002,93.604 187.264,93.7959981 187.264,94.18 L187.264,111.424 C187.264,111.808002 187.072002,112 186.688,112 L183.664,112 Z M200.224,108.76 C201.112004,108.736 201.885997,108.550002 202.546,108.202 C203.206003,107.853998 203.739998,107.380003 204.148,106.78 C204.268001,106.587999 204.423999,106.492 204.616,106.492 C204.736001,106.492 204.844,106.528 204.94,106.6 L206.668,107.968 C206.836001,108.136001 206.92,108.291999 206.92,108.436 C206.92,108.532 206.884,108.639999 206.812,108.76 C206.115997,109.864006 205.168006,110.727997 203.968,111.352 C202.767994,111.976003 201.388008,112.288 199.828,112.288 C197.931991,112.288 196.342006,111.838005 195.058,110.938 C193.773994,110.037995 192.844003,108.784008 192.268,107.176 C191.787998,105.855993 191.548,104.368008 191.548,102.712 C191.548,101.055992 191.679999,99.7840044 191.944,98.896 C192.400002,97.1919915 193.299993,95.836005 194.644,94.828 C195.988007,93.819995 197.61999,93.316 199.54,93.316 C204.028022,93.316 206.655996,95.7759754 207.424,100.696 C207.544001,101.488004 207.628,102.471994 207.676,103.648 C207.676,104.032002 207.484002,104.224 207.1,104.224 L195.94,104.224 C195.795999,104.224 195.724,104.295999 195.724,104.44 C195.724,105.088003 195.795999,105.615998 195.94,106.024 C196.204001,106.888004 196.707996,107.559998 197.452,108.04 C198.196004,108.520002 199.119994,108.76 200.224,108.76 Z M199.504,96.916 C198.591995,96.916 197.842003,97.1379978 197.254,97.582 C196.665997,98.0260022 196.264001,98.643996 196.048,99.436 C195.879999,99.9160024 195.784,100.419997 195.76,100.948 C195.736,101.092001 195.795999,101.164 195.94,101.164 L203.176,101.164 C203.320001,101.164 203.392,101.092001 203.392,100.948 C203.296,100.227996 203.224,99.7960007 203.176,99.652 C202.959999,98.8119958 202.534003,98.1460025 201.898,97.654 C201.261997,97.1619975 200.464005,96.916 199.504,96.916 Z M220.312,93.316 C222.28001,93.316 223.845994,93.8919942 225.01,95.044 C226.174006,96.1960058 226.756,97.76799 226.756,99.76 L226.756,111.424 C226.756,111.808002 226.564002,112 226.18,112 L223.156,112 C222.771998,112 222.58,111.808002 222.58,111.424 L222.58,100.624 C222.58,99.5199945 222.262003,98.6260034 221.626,97.942 C220.989997,97.2579966 220.156005,96.916 219.124,96.916 C218.091995,96.916 217.258003,97.2519966 216.622,97.924 C215.985997,98.5960034 215.668,99.4839945 215.668,100.588 L215.668,111.424 C215.668,111.808002 215.476002,112 215.092,112 L212.068,112 C211.683998,112 211.492,111.808002 211.492,111.424 L211.492,94.18 C211.492,93.7959981 211.683998,93.604 212.068,93.604 L215.092,93.604 C215.476002,93.604 215.668,93.7959981 215.668,94.18 L215.668,95.152 C215.668,95.2480005 215.692,95.3079999 215.74,95.332 C215.788,95.3560001 215.836,95.3320004 215.884,95.26 C216.892005,93.9639935 218.36799,93.316 220.312,93.316 Z M240.832,96.412 C240.832,96.7960019 240.640002,96.988 240.256,96.988 L236.764,96.988 C236.619999,96.988 236.548,97.0599993 236.548,97.204 L236.548,105.7 C236.548,106.636005 236.745998,107.307998 237.142,107.716 C237.538002,108.124002 238.167996,108.328 239.032,108.328 L239.968,108.328 C240.352002,108.328 240.544,108.519998 240.544,108.904 L240.544,111.316 C240.544,111.700002 240.352002,111.904 239.968,111.928 L238.24,111.964 C236.343991,111.964 234.928005,111.634003 233.992,110.974 C233.055995,110.313997 232.576,109.084009 232.552,107.284 L232.552,97.204 C232.552,97.0599993 232.480001,96.988 232.336,96.988 L230.464,96.988 C230.079998,96.988 229.888,96.7960019 229.888,96.412 L229.888,94.18 C229.888,93.7959981 230.079998,93.604 230.464,93.604 L232.336,93.604 C232.480001,93.604 232.552,93.5320007 232.552,93.388 L232.552,89.356 C232.552,88.9719981 232.743998,88.78 233.128,88.78 L235.972,88.78 C236.356002,88.78 236.548,88.9719981 236.548,89.356 L236.548,93.388 C236.548,93.5320007 236.619999,93.604 236.764,93.604 L240.256,93.604 C240.640002,93.604 240.832,93.7959981 240.832,94.18 L240.832,96.412 Z M252.028,112.288 C250.131991,112.288 248.500007,111.808005 247.132,110.848 C245.763993,109.887995 244.816003,108.556009 244.288,106.852 C243.879998,105.675994 243.676,104.308008 243.676,102.748 C243.676,101.211992 243.867998,99.844006 244.252,98.644 C244.804003,96.9639916 245.763993,95.6560047 247.132,94.72 C248.500007,93.7839953 250.14399,93.316 252.064,93.316 C253.888009,93.316 255.465993,93.7839953 256.798,94.72 C258.130007,95.6560047 259.071997,96.9519917 259.624,98.608 C260.056002,99.7600058 260.272,101.127992 260.272,102.712 C260.272,104.224008 260.068002,105.591994 259.66,106.816 C259.107997,108.520009 258.160007,109.857995 256.816,110.83 C255.471993,111.802005 253.876009,112.288 252.028,112.288 Z M252.028,108.688 C252.916004,108.688 253.677997,108.436003 254.314,107.932 C254.950003,107.427997 255.399999,106.720005 255.664,105.808 C255.928001,105.039996 256.06,104.032006 256.06,102.784 C256.06,101.607994 255.940001,100.600004 255.7,99.76 C255.435999,98.8479954 254.974003,98.1460025 254.314,97.654 C253.653997,97.1619975 252.868005,96.916 251.956,96.916 C251.043995,96.916 250.264003,97.1619975 249.616,97.654 C248.967997,98.1460025 248.512001,98.8479954 248.248,99.76 C248.007999,100.600004 247.888,101.607994 247.888,102.784 C247.888,103.960006 248.007999,104.967996 248.248,105.808 C248.512001,106.720005 248.973997,107.427997 249.634,107.932 C250.294003,108.436003 251.091995,108.688 252.028,108.688 Z" id="Cartelera-de-Innovac" fill="#23232B"></path>
    </g>
</svg>