<?xml version="1.0" encoding="UTF-8"?>
<svg width="500px" height="500px" viewBox="0 0 500 500" version="1.1" xmlns="http://www.w3.org/2000/svg" xmlns:xlink="http://www.w3.org/1999/xlink">
    <!-- Generator: Sketch 43.1 (39012) - http://www.bohemiancoding.com/sketch -->
    <title>Group 11</title>
    <desc>Created with Sketch.</desc>
    <defs></defs>
    <g id="Page-2" stroke="none" stroke-width="1" fill="none" fill-rule="evenodd">
        <g id="Group-11">
            <circle id="Oval-2" fill="#EEEEEE" cx="250" cy="250" r="250"></circle>
            <g id="warning" transform="translate(126.000000, 128.000000)" fill-rule="nonzero">
                <g id="Group" transform="translate(124.500000, 122.750000) scale(-1, 1) rotate(-180.000000) translate(-124.500000, -122.750000) translate(0.000000, 0.750000)">
                    <g transform="translate(-0.000000, 0.000000)">
                        <g>
                            <path d="M15.23375,0.089375 C2.135,0.089375 -3.639375,9.60375 2.39125,21.230625 L113.388125,234.955 C119.418125,246.581875 129.3025,246.581875 135.34,234.955 L246.3375,21.230625 C252.381875,9.60375 246.600625,0.089375 233.495,0.089375 L15.23375,0.089375 Z" id="Shape" fill="#FFCC4D"></path>
                            <g transform="translate(124.000000, 111.000000) scale(1, -1) translate(-124.000000, -111.000000) translate(67.000000, 43.000000)" fill="#404040">
                                <path d="M26.3956602,105.129313 L17.637125,105.129313 L17.637125,118.25567 L9.97346875,118.25567 L17.637125,84.2147739 L8.87858984,82.2896609 L0.120054687,121.668235 C-0.173136719,122.976261 0.1508125,124.345748 0.99615625,125.387113 C1.84993359,126.441365 3.14225781,127.036643 4.49957031,127.005913 L17.6376211,127.005913 L17.6376211,135.756652 L26.3961563,135.756652 L26.3961563,127.005913 L30.7756719,127.005913 L30.7756719,118.255174 L26.3961563,118.255174 L26.3961563,105.129313 L26.3956602,105.129313 Z" id="Shape"></path>
                                <path d="M57.0507813,83.252713 C47.3769531,83.252713 39.5337109,91.0889739 39.5337109,100.754191 L39.5337109,118.25567 C39.5337109,127.920887 47.3769531,135.757148 57.0507813,135.757148 C66.7246094,135.757148 74.5678516,127.920887 74.5678516,118.25567 L74.5678516,100.754191 C74.5678516,91.0889739 66.7246094,83.252713 57.0507813,83.252713 Z M65.8093164,118.25567 C65.8093164,123.090261 61.8896797,127.006409 57.0507812,127.006409 C52.2118828,127.006409 48.2922461,123.090261 48.2922461,118.25567 L48.2922461,100.754191 C48.2922461,95.9196 52.2118828,92.0034522 57.0507812,92.0034522 C61.8896797,92.0034522 65.8093164,95.9196 65.8093164,100.754191 L65.8093164,118.25567 Z" id="Shape"></path>
                                <path d="M113.982004,118.25567 L109.602488,118.25567 L109.602488,105.129313 L100.843953,105.129313 L100.843953,118.25567 L93.1802969,118.25567 L100.843953,84.2147739 L92.085418,82.2896609 L83.3268828,121.668235 C83.0336914,122.976261 83.3576406,124.345748 84.2029844,125.387113 C85.0567617,126.441365 86.3490859,127.036643 87.7063984,127.005913 L100.844449,127.005913 L100.844449,135.756652 L109.602984,135.756652 L109.602984,127.005913 L113.9825,127.005913 L113.9825,118.25567 L113.982004,118.25567 Z" id="Shape"></path>
                                <rect id="Rectangle-path" x="52.6712656" y="0.119452174" width="8.75853516" height="43.7541913"></rect>
                                <rect id="Rectangle-path" x="52.6712656" y="52.6243826" width="8.75853516" height="8.75073913"></rect>
                            </g>
                        </g>
                    </g>
                </g>
            </g>
        </g>
    </g>
</svg>