<?xml version="1.0" encoding="UTF-8"?>
<svg width="500px" height="500px" viewBox="0 0 500 500" version="1.1" xmlns="http://www.w3.org/2000/svg" xmlns:xlink="http://www.w3.org/1999/xlink">
    <!-- Generator: Sketch 43.1 (39012) - http://www.bohemiancoding.com/sketch -->
    <title>Group 5</title>
    <desc>Created with Sketch.</desc>
    <defs></defs>
    <g id="Page-2" stroke="none" stroke-width="1" fill="none" fill-rule="evenodd">
        <g id="Group-5">
            <g id="Group-4">
                <g id="Group-3" fill="#EEEEEE">
                    <g id="Group-2">
                        <circle id="Oval-2" cx="250" cy="250" r="250"></circle>
                    </g>
                </g>
                <g id="clipboard" transform="translate(250.477403, 250.104433) rotate(17.000000) translate(-250.477403, -250.104433) translate(146.977403, 132.104433)" fill-rule="nonzero">
                    <path d="M14.9671129,14.7337955 L191.720788,14.7337955 C199.821896,14.7337955 206.450416,21.3637229 206.450416,29.467591 L206.450416,221.005062 C206.450416,229.108463 199.822364,235.738858 191.720788,235.738858 L14.9671129,235.738858 C6.8660041,235.738858 0.237484175,229.10893 0.237484175,221.005062 L0.237484175,29.467591 C0.237951664,21.3637229 6.8660041,14.7337955 14.9671129,14.7337955 Z" id="Shape" fill="#F44336"></path>
                    <path d="M191.721255,14.7337955 L14.9671129,14.7337955 C6.8660041,14.7337955 0.237484175,21.3637229 0.237484175,29.467591 L0.237484175,38.6759794 C0.237484175,30.5725789 6.86553661,23.9421839 14.9671129,23.9421839 L191.720788,23.9421839 C199.821896,23.9421839 206.450416,30.5721113 206.450416,38.6759794 L206.450416,29.4671234 C206.450416,21.3637229 199.822364,14.7337955 191.721255,14.7337955 Z" id="Shape" fill="#B71C1C"></path>
                    <path d="M33.3791488,40.5174701 L173.309219,40.5174701 C177.360007,40.5174701 180.674034,43.8324338 180.674034,47.8843678 L180.674034,202.587818 C180.674034,206.639752 177.360007,209.954716 173.309219,209.954716 L33.3791488,209.954716 C29.3283607,209.954716 26.0143344,206.639752 26.0143344,202.587818 L26.0143344,47.8843678 C26.0143344,43.8324338 29.3283607,40.5174701 33.3791488,40.5174701 Z" id="Shape" fill="#EEDCAF"></path>
                    <path d="M48.1087775,29.4671234 L158.580058,29.4671234 C160.605218,29.4671234 162.262465,31.1248391 162.262465,33.1505723 L162.262465,47.8843678 C162.262465,53.9620351 157.291192,58.9347145 151.215244,58.9347145 L55.4735919,58.9347145 C49.3976434,58.9347145 44.4263703,53.9620351 44.4263703,47.8843678 L44.4263703,33.1505723 C44.4263703,31.1248391 46.0831497,29.4671234 48.1087775,29.4671234 Z" id="Shape" fill="#CCD0D2"></path>
                    <path d="M72.0441905,93.927245 L153.056213,93.927245 C155.081374,93.927245 156.738621,92.2695293 156.738621,90.2437961 C156.738621,88.2180629 155.081374,86.5603472 153.056213,86.5603472 L72.0441905,86.5603472 C70.0190301,86.5603472 68.3617833,88.2180629 68.3617833,90.2437961 C68.3617833,92.2695293 70.0185626,93.927245 72.0441905,93.927245 Z M153.056213,104.977124 L72.0441905,104.977124 C70.0190301,104.977124 68.3617833,106.63484 68.3617833,108.660573 C68.3617833,110.686306 70.0190301,112.344022 72.0441905,112.344022 L153.056213,112.344022 C155.081374,112.344022 156.738621,110.686306 156.738621,108.660573 C156.738621,106.63484 155.081374,104.977124 153.056213,104.977124 Z M153.056213,123.394368 L72.0441905,123.394368 C70.0190301,123.394368 68.3617833,125.052084 68.3617833,127.077817 C68.3617833,129.103551 70.0190301,130.761266 72.0441905,130.761266 L153.056213,130.761266 C155.081374,130.761266 156.738621,129.103551 156.738621,127.077817 C156.738621,125.052084 155.081374,123.394368 153.056213,123.394368 Z M57.3145617,86.5603472 L53.6321545,86.5603472 C51.6069942,86.5603472 49.9497474,88.2180629 49.9497474,90.2437961 C49.9497474,92.2695293 51.6069942,93.927245 53.6321545,93.927245 L57.3145617,93.927245 C59.3397221,93.927245 60.9969689,92.2695293 60.9969689,90.2437961 C60.9969689,88.2175953 59.3397221,86.5603472 57.3145617,86.5603472 Z M57.3145617,104.977124 L53.6321545,104.977124 C51.6069942,104.977124 49.9497474,106.63484 49.9497474,108.660573 C49.9497474,110.686306 51.6069942,112.344022 53.6321545,112.344022 L57.3145617,112.344022 C59.3397221,112.344022 60.9969689,110.686306 60.9969689,108.660573 C60.9969689,106.63484 59.3397221,104.977124 57.3145617,104.977124 Z M57.3145617,123.394368 L53.6321545,123.394368 C51.6069942,123.394368 49.9497474,125.052084 49.9497474,127.077817 C49.9497474,129.103551 51.6069942,130.761266 53.6321545,130.761266 L57.3145617,130.761266 C59.3397221,130.761266 60.9969689,129.103551 60.9969689,127.077817 C60.9969689,125.052084 59.3397221,123.394368 57.3145617,123.394368 Z M153.056213,141.811613 L72.0441905,141.811613 C70.0190301,141.811613 68.3617833,143.469328 68.3617833,145.495062 C68.3617833,147.520795 70.0190301,149.178511 72.0441905,149.178511 L153.056213,149.178511 C155.081374,149.178511 156.738621,147.520795 156.738621,145.495062 C156.738621,143.469328 155.081374,141.811613 153.056213,141.811613 Z M153.056213,160.22839 L72.0441905,160.22839 C70.0190301,160.22839 68.3617833,161.886105 68.3617833,163.911838 C68.3617833,165.937572 70.0190301,167.595287 72.0441905,167.595287 L153.056213,167.595287 C155.081374,167.595287 156.738621,165.937572 156.738621,163.911838 C156.738621,161.886105 155.081374,160.22839 153.056213,160.22839 Z M57.3145617,141.811613 L53.6321545,141.811613 C51.6069942,141.811613 49.9497474,143.469328 49.9497474,145.495062 C49.9497474,147.520795 51.6069942,149.178511 53.6321545,149.178511 L57.3145617,149.178511 C59.3397221,149.178511 60.9969689,147.520795 60.9969689,145.495062 C60.9969689,143.469328 59.3397221,141.811613 57.3145617,141.811613 Z M57.3145617,160.22839 L53.6321545,160.22839 C51.6069942,160.22839 49.9497474,161.886105 49.9497474,163.911838 C49.9497474,165.937572 51.6069942,167.595287 53.6321545,167.595287 L57.3145617,167.595287 C59.3397221,167.595287 60.9969689,165.937572 60.9969689,163.911838 C60.9969689,161.886105 59.3397221,160.22839 57.3145617,160.22839 Z" id="Shape" fill="#D8C69A"></path>
                    <path d="M79.4090048,0 L127.279831,0 C133.355779,0 138.327052,4.97267937 138.327052,11.0503466 L138.327052,29.467591 L68.3617833,29.467591 L68.3617833,11.0503466 C68.3617833,4.97267937 73.3330563,0 79.4090048,0 Z" id="Shape" fill="#CCD0D2"></path>
                    <path d="M44.4263703,33.1505723 L44.4263703,40.5174701 L162.262465,40.5174701 L162.262465,33.1505723 C162.262465,31.1248391 160.605218,29.4671234 158.580058,29.4671234 L48.1087775,29.4671234 C46.0831497,29.4671234 44.4263703,31.1248391 44.4263703,33.1505723 Z" id="Shape" fill="#BCC0C2"></path>
                    <polygon id="Shape" fill="#AEB1B3" points="68.3617833 22.1006933 138.327052 22.1006933 138.327052 29.467591 68.3617833 29.467591"></polygon>
                </g>
            </g>
        </g>
    </g>
</svg>