<?xml version="1.0" encoding="UTF-8"?>
<svg width="500px" height="500px" viewBox="0 0 500 500" version="1.1" xmlns="http://www.w3.org/2000/svg" xmlns:xlink="http://www.w3.org/1999/xlink">
    <!-- Generator: Sketch 43.1 (39012) - http://www.bohemiancoding.com/sketch -->
    <title>Group 11</title>
    <desc>Created with Sketch.</desc>
    <defs></defs>
    <g id="Page-2" stroke="none" stroke-width="1" fill="none" fill-rule="evenodd">
        <g id="Group-11">
            <circle id="Oval-2" fill="#EEEEEE" cx="250" cy="250" r="250"></circle>
            <g id="warning" transform="translate(126.000000, 128.000000)" fill-rule="nonzero">
                <g id="Group" transform="translate(124.500000, 122.750000) scale(-1, 1) rotate(-180.000000) translate(-124.500000, -122.750000) translate(0.000000, 0.750000)">
                    <g transform="translate(-0.000000, 0.000000)" id="Shape">
                        <g>
                            <path d="M15.23375,0.089375 C2.135,0.089375 -3.639375,9.60375 2.39125,21.230625 L113.388125,234.955 C119.418125,246.581875 129.3025,246.581875 135.34,234.955 L246.3375,21.230625 C252.381875,9.60375 246.600625,0.089375 233.495,0.089375 L15.23375,0.089375 Z" fill="#FFCC4D"></path>
                            <path d="M108.503125,173.17375 C108.503125,182.4325 115.336875,188.16375 124.375,188.16375 C133.2,188.16375 140.254375,182.21875 140.254375,173.17375 L140.254375,88.28125 C140.254375,79.243125 133.2,73.29125 124.375,73.29125 C115.336875,73.29125 108.503125,79.03 108.503125,88.28125 L108.503125,173.17375 Z M107.180625,43.09 C107.180625,52.569375 114.89625,60.284375 124.375,60.284375 C133.854375,60.284375 141.576875,52.56875 141.576875,43.09 C141.576875,33.60375 133.854375,25.888125 124.375,25.888125 C114.89625,25.888125 107.180625,33.60375 107.180625,43.09 L107.180625,43.09 Z" fill="#404040"></path>
                        </g>
                    </g>
                </g>
            </g>
        </g>
    </g>
</svg>