<?xml version="1.0" encoding="UTF-8"?>
<svg width="500px" height="500px" viewBox="0 0 500 500" version="1.1" xmlns="http://www.w3.org/2000/svg" xmlns:xlink="http://www.w3.org/1999/xlink">
    <!-- Generator: Sketch 43.1 (39012) - http://www.bohemiancoding.com/sketch -->
    <title>Group 9</title>
    <desc>Created with Sketch.</desc>
    <defs></defs>
    <g id="Page-2" stroke="none" stroke-width="1" fill="none" fill-rule="evenodd">
        <g id="Group-9">
            <g id="Group-7" fill="#EEEEEE">
                <circle id="Oval-2" cx="250" cy="250" r="250"></circle>
            </g>
            <path d="M153.731949,194.05208 C106.496296,194.05208 111.73384,251.526477 111.949483,293.176284 C111.957534,294.749364 112.781004,296.167093 114.127768,296.979525 C119.361862,300.136618 133.73693,307.518128 153.731949,307.518128 C173.726969,307.518128 188.102037,300.136618 193.336131,296.979525 C194.68232,296.167093 195.506365,294.749364 195.514415,293.176284 C195.730058,251.526477 200.967602,194.05208 153.731949,194.05208 Z" id="Shape" fill="#694B4B" fill-rule="nonzero"></path>
            <path d="M150.688791,194.170608 C106.757943,196.634947 111.739016,252.45341 111.949483,293.176284 C111.957534,294.749364 112.781004,296.167668 114.127768,296.979525 C119.361862,300.136618 133.73693,307.518128 153.731949,307.518128 L165.669386,223.911264" id="Shape" fill="#5A4146" fill-rule="nonzero"></path>
            <path d="M153.731949,194.05208 C126.873723,194.05208 125.00884,226.52405 125.00884,226.52405 C140.489727,223.911264 150.002183,230.442942 165.669386,223.911264 L153.731949,307.518128 C173.727544,307.518128 188.102037,300.136618 193.336131,296.979525 C194.68232,296.167093 195.506365,294.749364 195.514415,293.176284 C195.730058,251.526477 200.967602,194.05208 153.731949,194.05208 Z" id="Shape" fill="#694B4B" fill-rule="nonzero"></path>
            <path d="M195.514415,293.176284 C195.699581,257.387266 199.561033,209.947442 170.682086,197.296055 C170.178343,199.91402 169.265741,207.223033 171.637242,211.967015 C177.605673,223.911264 183.574678,223.911264 189.542534,232.868731 C195.510965,265.714121 178.138743,300.575631 172.368704,305.321915 L172.368704,305.321915 C182.59192,302.889221 189.920341,299.039374 193.336131,296.979525 C194.68232,296.167668 195.506365,294.749364 195.514415,293.176284 Z" id="Shape" fill="#785550" fill-rule="nonzero"></path>
            <path d="M198.954932,302.235018 L172.32615,291.133696 C170.102437,290.206764 168.653314,288.032415 168.653314,285.62101 L168.653314,278.405209 L138.81116,278.405209 L138.81116,285.62101 C138.81116,288.032415 137.362037,290.206764 135.138324,291.133696 L108.509542,302.235018 C105.173109,303.626279 103,306.88809 103,310.504334 L103,322.448583 C103,325.746643 105.672251,328.42042 108.968431,328.42042 L198.495468,328.42042 C201.791647,328.42042 204.463899,325.746643 204.463899,322.448583 L204.463899,310.504334 C204.464474,306.88809 202.291365,303.626279 198.954932,302.235018 Z" id="Shape" fill="#E6AF78" fill-rule="nonzero"></path>
            <path d="M198.954932,302.235018 L173.208275,291.500786 L153.731949,299.911646 L134.255624,291.501362 L108.509542,302.235593 C105.173109,303.626279 103,306.88809 103,310.504334 L103,322.448583 C103,325.746643 105.672251,328.42042 108.968431,328.42042 L198.495468,328.42042 C201.791647,328.42042 204.463899,325.746643 204.463899,322.448583 L204.463899,310.504334 C204.464474,306.88809 202.291365,303.626279 198.954932,302.235018 Z" id="Shape" fill="#7DD498" fill-rule="nonzero"></path>
            <path d="M168.653314,278.405209 L138.81116,278.405209 L138.81116,285.62101 C138.81116,288.032415 137.362037,290.206764 135.138324,291.133696 L130.979571,292.867882 C162.805643,300.987601 168.653314,278.405209 168.653314,278.405209 Z" id="Shape" fill="#D29B6E" fill-rule="nonzero"></path>
            <g id="Group" transform="translate(103.000000, 286.324121)" fill-rule="nonzero">
                <path d="M14.5452827,27.4621633 L2.56701754,17.9287437 C0.96205653,19.5708693 0,21.7918241 0,24.1802136 L0,36.1244623 C0,39.4225226 2.67225146,42.096299 5.9684308,42.096299 L17.9058674,42.096299 L17.9058674,34.4575955 C17.9052924,31.7360628 16.6695127,29.162402 14.5452827,27.4621633 Z" id="Shape" fill="#418443"></path>
                <path d="M101.464474,36.1238869 L101.464474,24.1796382 C101.464474,21.8096608 100.518519,19.6042412 98.9359844,17.9655678 L86.918616,27.4615879 C84.794961,29.1612513 83.5586062,31.7349121 83.5586062,34.4564447 L83.5586062,42.0945729 L95.4960429,42.0945729 C98.7922222,42.0957236 101.464474,39.4219472 101.464474,36.1238869 Z" id="Shape" fill="#E4EAF6"></path>
                <path d="M51.1799123,36.1238869 L50.2845614,36.1238869 C48.8837427,36.1238869 47.7480214,34.9875176 47.7480214,33.5858995 L47.7480214,13.5944296 L53.7164522,13.5944296 L53.7164522,33.5853241 C53.7164522,34.9875176 52.580731,36.1238869 51.1799123,36.1238869 Z" id="Shape" fill="#418443"></path>
                <path d="M50.7319493,13.5881005 L33.6518519,0.771005025 C32.5552339,-0.0517839196 30.9934016,0.215766332 30.2331871,1.35673869 L26.8582261,6.42178141 L37.3298635,21.0904397 C38.125731,22.2055201 39.6944639,22.4235879 40.7640546,21.5674271 L50.7319493,13.5881005 Z" id="Shape" fill="#418443"></path>
                <path d="M50.7319493,13.5881005 L67.8120468,0.771005025 C68.9086647,-0.0517839196 70.4704971,0.215766332 71.2307115,1.35673869 L74.6056725,6.42178141 L64.1340351,21.0904397 C63.3381676,22.2055201 61.7694347,22.4235879 60.6998441,21.5674271 L50.7319493,13.5881005 Z" id="Shape" fill="#418443"></path>
            </g>
            <path d="M168.653314,220.926209 C153.731949,235.855513 124.449318,223.911264 124.449318,247.798611 L126.302125,265.394211 C126.659805,269.330364 128.940448,272.83441 132.392466,274.753867 L149.384006,284.198678 C152.087885,285.701563 155.375439,285.701563 158.079318,284.198678 L175.070858,274.753867 C178.524025,272.83441 180.804094,269.329789 181.161199,265.394211 L183.30038,244.496523 C183.452768,243.010899 183.484971,241.516646 183.434942,240.02642 C182.319347,232.425691 171.637242,226.89747 168.653314,220.926209 Z" id="Shape" fill="#F0C087" fill-rule="nonzero"></path>
            <path d="M124.449318,247.798611 L126.302125,265.394211 C126.659805,269.330364 128.940448,272.83441 132.392466,274.753867 L149.384006,284.198678 C151.26039,285.241837 153.412222,285.511688 155.460546,285.107198 L155.460546,285.107198 C155.460546,285.107198 146.894045,282.509372 141.795088,268.699751 C140.233255,264.46958 138.064747,242.074761 139.930205,239.337693 C143.617417,233.928 164.177135,233.365857 170.251949,223.329558 C169.951774,222.957289 169.6746,222.583869 169.421579,222.21045 C169.401452,222.18053 169.376725,222.150035 169.356023,222.11954 C169.092076,221.72253 168.852856,221.324369 168.652739,220.924482 C153.731949,235.855513 124.449318,223.911264 124.449318,247.798611 Z" id="Shape" fill="#E6AF78" fill-rule="nonzero"></path>
            <path d="M175.517096,322.448008 L167.757963,322.448008 C164.956326,322.448008 162.684883,324.720746 162.684883,327.523982 L162.684883,328.419844 L180.590175,328.419844 L180.590175,327.523982 C180.590175,324.720171 178.318733,322.448008 175.517096,322.448008 Z" id="Shape" fill="#418443" fill-rule="nonzero"></path>
            <polygon id="Shape" fill="#E6AF78" fill-rule="nonzero" points="357.620078 288.351749 357.620078 271.952357 315.473031 271.952357 315.473031 288.351749 336.546267 307.094651"></polygon>
            <path d="M390.204064,296.023249 L361.230234,289.202156 C360.792622,289.099163 360.390088,288.924249 360.014006,288.71251 L336.546267,302.409932 L313.994006,288.050251 C313.409756,288.600312 312.68577,289.008829 311.862875,289.202731 L282.889045,296.023824 C278.657836,297.019802 275.668158,300.797151 275.668158,305.146425 L275.668158,323.495193 C275.668158,326.082663 277.764786,328.181063 280.351355,328.181063 L392.742904,328.181063 C395.328899,328.181063 397.426101,326.083239 397.426101,323.495193 L397.426101,305.146425 C397.424951,300.796575 394.434698,297.019226 390.204064,296.023249 Z" id="Shape" fill="#EFF2FA" fill-rule="nonzero"></path>
            <path d="M315.473031,271.952357 L315.473031,289.255666 C342.020156,298.825334 357.620078,274.874121 357.620078,274.874121 L357.620078,271.952357 L315.473031,271.952357 L315.473031,271.952357 Z" id="Shape" fill="#D29B6E" fill-rule="nonzero"></path>
            <path d="M306.107212,218.067161 L308.14806,262.982807 C308.338977,267.17903 310.394776,271.069729 313.75306,273.589879 L323.434581,280.855163 C325.866462,282.680259 328.824513,283.666455 331.863645,283.666455 L341.229464,283.666455 C344.269172,283.666455 347.227222,282.679683 349.658528,280.855163 L359.340049,273.589879 C362.698333,271.069729 364.754708,267.178455 364.945049,262.982807 L366.985897,218.067161 L306.107212,218.067161 L306.107212,218.067161 Z" id="Shape" fill="#F0C087" fill-rule="nonzero"></path>
            <path d="M329.522047,227.438324 C338.887865,227.438324 352.936881,225.095965 356.269288,218.067161 L306.107212,218.067161 L308.147485,262.982807 C308.338402,267.17903 310.394201,271.069729 313.752485,273.589879 L323.434006,280.855163 C325.865887,282.680259 328.823938,283.666455 331.86307,283.666455 L336.546267,283.666455 C331.86307,283.666455 322.497251,274.295291 322.497251,262.580618 L322.497251,234.466553 C322.497251,232.124193 324.83885,227.438324 329.522047,227.438324 Z" id="Shape" fill="#E6AF78" fill-rule="nonzero"></path>
            <path d="M380.235019,312.975003 L395.40768,299.33742 C396.679113,300.948475 397.424951,302.974952 397.424951,305.145274 L397.424951,323.494043 C397.424951,326.081513 395.328324,328.179912 392.741754,328.179912 L376.351715,328.179912 L376.351715,321.689661 C376.351715,318.365133 377.762885,315.197108 380.235019,312.975003 Z" id="Shape" fill="#E4EAF6" fill-rule="nonzero"></path>
            <polygon id="Shape" fill="#5B5D6E" fill-rule="nonzero" points="342.400263 328.179912 330.692271 328.179912 332.156345 307.094651 340.936764 307.094651"></polygon>
            <path d="M342.400263,302.408781 L330.692271,302.408781 L330.692271,303.762068 C330.692271,306.896721 333.231686,309.43701 336.363977,309.43701 L336.727407,309.43701 C339.860273,309.43701 342.399113,306.896146 342.399113,303.762068 L342.399113,302.408781 L342.400263,302.408781 Z" id="Shape" fill="#515262" fill-rule="nonzero"></path>
            <g id="Group" transform="translate(308.292398, 282.296482)" fill-rule="nonzero" fill="#E4EAF6">
                <path d="M6.8511306,0.840050251 L28.2532943,20.1128744 C28.2532943,20.1128744 22.2595614,23.1399322 14.8627096,29.2423794 C13.3371053,30.501304 11.0288596,29.9909447 10.2105653,28.1900151 L0.155263158,6.05641709 L3.33643275,1.28251508 C4.1288499,0.0932110553 5.79016569,-0.115650754 6.8511306,0.840050251 Z" id="Shape"></path>
                <path d="M49.6560331,0.840050251 L28.2538694,20.1128744 C28.2538694,20.1128744 34.2476023,23.1399322 41.6444542,29.2423794 C43.1700585,30.501304 45.4783041,29.9909447 46.2965984,28.1900151 L56.3519006,6.05641709 L53.170731,1.28251508 C52.3788889,0.0932110553 50.7175731,-0.115650754 49.6560331,0.840050251 Z" id="Shape"></path>
            </g>
            <path d="M350.741345,202.545794 L352.936881,218.067161 C362.957105,220.072349 364.401053,235.80603 364.60922,240.300299 C364.647173,241.115608 364.907096,241.903874 365.349308,242.589724 L369.172807,248.523585 C369.172807,248.523585 367.863996,238.712834 373.856004,232.124193 C373.855429,232.124193 375.912378,193.174631 350.741345,202.545794 Z" id="Shape" fill="#785550" fill-rule="nonzero"></path>
            <path d="M371.521306,247.521854 L368.876657,258.104761 C368.563255,259.358508 367.43731,260.238259 366.14575,260.238259 L366.14575,260.238259 C364.725955,260.238259 363.528704,259.180716 363.352164,257.771043 L362.000224,246.947053 C361.638519,244.052332 363.894435,241.495932 366.809357,241.495932 L366.819133,241.495932 C369.9727,241.495357 372.286121,244.460849 371.521306,247.521854 Z" id="Shape" fill="#F0C087" fill-rule="nonzero"></path>
            <path d="M308.350478,198.34842 L311.813996,200.71552 C296.155419,212.283472 299.081842,232.124193 299.081842,232.124193 C303.765039,236.810063 303.765039,248.523585 303.765039,248.523585 L308.448236,243.837716 C308.448236,243.837716 306.640858,230.301975 315.473031,225.095389 C323.668051,220.263374 330.838908,222.75303 338.155828,222.75303 C357.765565,222.75303 363.25383,215.358286 362.3027,206.353638 C361.810458,201.693661 354.690205,191.988204 336.546842,192.296606 C329.223596,192.420887 315.473031,194.63954 308.350478,198.34842 Z" id="Shape" fill="#694B4B" fill-rule="nonzero"></path>
            <path d="M306.984737,220.702962 C306.984737,220.702962 304.497076,210.892211 311.813996,200.71552 C296.155419,212.283472 299.081842,232.124193 299.081842,232.124193 C303.765039,236.810063 303.765039,248.523585 303.765039,248.523585 L308.448236,243.837716 C308.448236,243.837716 306.640858,230.301975 315.472456,225.095389 C323.667476,220.263374 330.838333,222.75303 338.155253,222.75303 C341.344474,222.75303 344.123684,222.53899 346.599269,222.17305 C331.497339,222.679957 322.59501,211.23456 306.984737,220.702962 Z" id="Shape" fill="#5A4146" fill-rule="nonzero"></path>
            <path d="M301.570653,247.521854 L304.215302,258.104761 C304.528704,259.358508 305.654649,260.238259 306.946784,260.238259 L306.946784,260.238259 C308.366579,260.238259 309.56383,259.180716 309.74037,257.771043 L311.09231,246.947053 C311.454016,244.052332 309.198099,241.495932 306.282602,241.495932 L306.272827,241.495932 C303.120409,241.495357 300.805838,244.460849 301.570653,247.521854 Z" id="Shape" fill="#E6AF78" fill-rule="nonzero"></path>
            <path d="M364.644298,323.494618 L352.936306,323.494618 C350.350312,323.494618 348.253109,325.592442 348.253109,328.180487 L348.253109,328.180487 L369.326345,328.180487 L369.326345,328.180487 C369.32692,325.592442 367.230292,323.494618 364.644298,323.494618 Z" id="Shape" fill="#E4EAF6" fill-rule="nonzero"></path>
            <path d="M250.301608,135.287688 C170.000653,135.287688 178.904708,232.994739 179.271589,303.798892 C179.28539,306.472668 180.685058,308.884073 182.974327,310.264402 C191.872632,315.631518 216.309903,328.179912 250.301608,328.179912 C284.293314,328.179912 308.730585,315.631518 317.628889,310.264402 C319.917583,308.883497 321.317827,306.472668 321.331628,303.798892 C321.698509,232.994163 330.602563,135.287688 250.301608,135.287688 Z" id="Shape" fill="#694B4B" fill-rule="nonzero"></path>
            <path d="M245.12732,135.488495 C170.445166,139.677814 178.912758,234.569545 179.271589,303.798317 C179.28539,306.472093 180.685058,308.883497 182.974327,310.263827 C191.872632,315.630942 216.309903,328.179337 250.301608,328.179337 L270.594503,186.048013" id="Shape" fill="#5A4146" fill-rule="nonzero"></path>
            <path d="M250.301608,135.287688 C204.642739,135.287688 201.47192,190.490497 201.47192,190.490497 C227.789025,186.049163 243.959971,197.152786 270.594503,186.049163 L250.301608,328.180487 C284.293314,328.180487 308.730585,315.632093 317.628889,310.264977 C319.917583,308.884073 321.317827,306.473244 321.331628,303.799467 C321.698509,232.994163 330.602563,135.287688 250.301608,135.287688 Z" id="Shape" fill="#694B4B" fill-rule="nonzero"></path>
            <path d="M321.331628,303.799467 C321.646754,242.957965 328.210361,162.310839 279.1173,140.803251 C278.261053,145.254367 276.710721,157.679631 280.740663,165.744688 C290.887398,186.049163 301.033558,186.049163 311.179717,201.277663 C321.325877,257.115113 291.792524,316.380083 281.983918,324.447442 L281.983918,324.447442 C299.363041,320.311633 311.821472,313.767296 317.628314,310.264977 C319.917583,308.884073 321.317827,306.473244 321.331628,303.799467 Z" id="Shape" fill="#785550" fill-rule="nonzero"></path>
            <path d="M327.180448,319.19943 L281.911462,300.326492 C278.130517,298.750535 275.667583,295.053739 275.667583,290.954754 L275.667583,278.687719 L224.935634,278.687719 L224.935634,290.954754 C224.935634,295.053163 222.4727,298.74996 218.691754,300.326492 L173.422768,319.19943 C167.751637,321.563653 164.056949,327.10856 164.056949,333.256462 L164.056949,353.560937 C164.056949,359.16741 168.599834,363.713462 174.203109,363.713462 L326.399532,363.713462 C332.002807,363.713462 336.545692,359.167985 336.545692,353.560937 L336.545692,333.256462 C336.546267,327.107985 332.851579,321.563653 327.180448,319.19943 Z" id="Shape" fill="#E6AF78" fill-rule="nonzero"></path>
            <path d="M327.180448,319.19943 L283.411189,300.951927 L250.301608,315.249467 L217.192027,300.951927 L173.422768,319.19943 C167.751637,321.563653 164.056949,327.10856 164.056949,333.256462 L164.056949,353.560937 C164.056949,359.16741 168.599834,363.713462 174.203109,363.713462 L326.399532,363.713462 C332.002807,363.713462 336.545692,359.167985 336.545692,353.560937 L336.545692,333.256462 C336.546267,327.107985 332.851579,321.563653 327.180448,319.19943 Z" id="Shape" fill="#F44336" fill-rule="nonzero"></path>
            <path d="M275.667583,278.687719 L224.935634,278.687719 L224.935634,290.954754 C224.935634,295.053163 222.4727,298.74996 218.691754,300.326492 L211.62153,303.274724 C265.72614,317.07744 275.667583,278.687719 275.667583,278.687719 Z" id="Shape" fill="#D29B6E" fill-rule="nonzero"></path>
            <g id="Group" transform="translate(163.955166, 292.077889)" fill-rule="nonzero" fill="#B71C1C">
                <path d="M24.8294542,46.7580025 L4.46640351,30.5513618 C1.73837232,33.3430905 0.102933723,37.1181382 0.102933723,41.1779975 L0.102933723,61.4824724 C0.102933723,67.0889447 4.64581871,71.6344221 10.2490936,71.6344221 L30.5419883,71.6344221 L30.5419883,58.6493166 C30.5408382,54.0232864 28.4396101,49.6481206 24.8294542,46.7580025 Z" id="Shape"></path>
                <path d="M172.591101,61.4824724 L172.591101,41.1779975 C172.591101,37.1492085 170.98269,33.4000528 168.292612,30.6146533 L147.863431,46.7580025 C144.253275,49.6481206 142.151472,54.0232864 142.151472,58.6493166 L142.151472,71.6344221 L162.444366,71.6344221 C168.048216,71.6349975 172.591101,67.0895201 172.591101,61.4824724 Z" id="Shape"></path>
                <path d="M86.3464425,61.4824724 L86.3464425,61.4824724 C83.5448051,61.4824724 81.2733626,59.2097337 81.2733626,56.4064975 L81.2733626,23.1830854 L91.4195224,23.1830854 L91.4195224,56.4070729 C91.4195224,59.210309 89.1480799,61.4824724 86.3464425,61.4824724 Z" id="Shape"></path>
                <path d="M86.3464425,23.1715779 L57.3099318,1.3814799 C55.4461988,-0.0172613065 52.7900487,0.437861809 51.4979142,2.37745729 L45.760653,10.9885477 L63.5624366,35.9248065 C64.9155263,37.8206734 67.5826023,38.1906407 69.4003314,36.7355126 L86.3464425,23.1715779 Z" id="Shape"></path>
                <path d="M86.3464425,23.1715779 L115.382953,1.3814799 C117.246686,-0.0172613065 119.902836,0.437861809 121.194971,2.37745729 L126.932232,10.9885477 L109.130448,35.9248065 C107.777359,37.8206734 105.110283,38.1906407 103.292554,36.7355126 L86.3464425,23.1715779 Z" id="Shape"></path>
            </g>
            <path d="M275.667583,180.972613 C250.301608,206.353063 200.520789,186.048588 200.520789,226.657538 L203.671481,256.570807 C204.278733,263.261864 208.156287,269.219317 214.025809,272.481704 L242.911082,288.538171 C247.508021,291.09342 253.09692,291.09342 257.69386,288.538171 L286.579133,272.481704 C292.448655,269.218166 296.325634,263.261289 296.93346,256.570807 L300.570068,221.044161 C300.82884,218.519407 300.884045,215.979118 300.798363,213.444583 C298.898977,200.523344 280.740663,191.124563 275.667583,180.972613 Z" id="Shape" fill="#F0C087" fill-rule="nonzero"></path>
            <path d="M200.520789,226.657538 L203.671481,256.570807 C204.278733,263.261864 208.156287,269.219317 214.025809,272.481704 L242.911082,288.538171 C246.100877,290.310907 249.758762,290.770633 253.240682,290.083058 L253.240682,290.083058 C253.240682,290.083058 238.676998,285.667616 230.009864,262.190513 C227.354864,254.998302 223.668226,216.92849 226.839045,212.275417 C233.106501,203.078018 268.059113,202.122892 278.386988,185.061241 C277.876345,184.427751 277.40538,183.793686 276.975244,183.157894 C276.940166,183.106686 276.898762,183.054902 276.864259,183.003693 C276.415721,182.329352 276.008587,181.652709 275.668733,180.972613 C250.301608,206.353063 200.520789,186.048588 200.520789,226.657538 Z" id="Shape" fill="#E6AF78" fill-rule="nonzero"></path>
            <path d="M290.887398,353.560362 L270.594503,353.560362 C267.792865,353.560362 265.521423,355.833101 265.521423,358.636337 L265.521423,363.712312 L295.960478,363.712312 L295.960478,358.636337 C295.960478,355.833101 293.689035,353.560362 290.887398,353.560362 Z" id="Shape" fill="#B71C1C" fill-rule="nonzero"></path>
        </g>
    </g>
</svg>